<?xml version="1.0" encoding="UTF-8"?><!DOCTYPE svg PUBLIC "-//W3C//DTD SVG 1.1//EN" "http://www.w3.org/Graphics/SVG/1.1/DTD/svg11.dtd"><svg xmlns="http://www.w3.org/2000/svg" xmlns:xlink="http://www.w3.org/1999/xlink"><symbol id="checkbox-activate" viewBox="0 0 24 17">
<path opacity="0.3" d="M22.925 1.325L21.825 0.225C21.525 -0.075 20.925 -0.075 20.625 0.225L8.725 12.125L2.525 5.925C2.225 5.625 1.625 5.625 1.325 5.925L0.225 7.025C-0.075 7.325 -0.075 7.925 0.225 8.225L8.025 16.025C8.225 16.225 8.425 16.225 8.625 16.225C8.825 16.225 9.025 16.125 9.225 16.025L22.725 2.525C23.225 2.225 23.225 1.725 22.925 1.325Z" fill="#333333"/>
</symbol><symbol id="checkbox" viewBox="0 0 24 17">
<path d="M22.925 1.325L21.825 0.225C21.525 -0.075 20.925 -0.075 20.625 0.225L8.725 12.125L2.525 5.925C2.225 5.625 1.625 5.625 1.325 5.925L0.225 7.025C-0.075 7.325 -0.075 7.925 0.225 8.225L8.025 16.025C8.225 16.225 8.425 16.225 8.625 16.225C8.825 16.225 9.025 16.125 9.225 16.025L22.725 2.525C23.225 2.225 23.225 1.725 22.925 1.325Z"/>
</symbol><symbol id="htmlacademy" viewBox="0 0 27 35">
<path d="M13.6 0H13.5L0 1.4V26.1L13.5 34.1L26.9 26.1V1.4L13.6 0ZM25 12.1L13.5 5.3V5.2H13.4L13.3 5.1V5.2L1.9 12.1V3.1L13.4 1.9L25 3.1V12.1ZM13.4 6.8L24.9 13.5L20.4 16.1L13.3 11.9V13.3L19.2 16.8L18.3 17.3L13.3 14.3V15.7L17.1 18L16.3 18.5L13.3 16.7V18.1L15.2 19.2L13.4 20.3L2 13.6L13.4 6.8ZM1.9 15.1L13.3 21.9V22.9L5.4 18.2V19.6L13.4 24.4V25.5L5.4 20.8V22.2L13.4 27L21.5 22.1V16.9L24.9 14.9V24.9L13.4 31.8L1.9 25V15.1Z"/>
</symbol><symbol id="icon-burger" viewBox="0 0 40 35">
<path d="M37.7428 23.3004H2.25722C0.997375 23.3004 0 24.3135 0 25.4785V27.2514C0 28.4164 0.997375 29.3788 2.25722 29.3788H2.78215V29.8853C2.78215 32.6712 5.14436 34.9 7.979 34.9H32.021C34.9081 34.9 37.2178 32.6206 37.2178 29.8853V29.3788H37.7428C38.9501 29.3788 40 28.4164 40 27.2007V25.4278C40 24.3135 39.0026 23.3004 37.7428 23.3004ZM35.6955 29.8853C35.6955 31.8101 34.0682 33.3804 32.0735 33.3804H7.92651C5.93176 33.3804 4.30446 31.8101 4.30446 29.8853V29.3788H35.6955V29.8853ZM38.4252 27.2007C38.4252 27.5553 38.1102 27.8592 37.7428 27.8592H2.25722C1.88976 27.8592 1.5748 27.5553 1.5748 27.2007V25.4278C1.5748 25.1239 1.88976 24.82 2.25722 24.82H37.7953C38.1627 24.82 38.4777 25.1239 38.4777 25.4785V27.2007H38.4252Z" fill="#81B3D2"/>
<path d="M8.50395 19.1973L11.3386 21.2234L14.2257 19.1973L17.1129 21.2234L20 19.1973L22.8347 21.2234L25.7218 19.1973L28.6089 21.2234L31.4961 19.1973L34.3832 21.2234L37.6903 18.8427L36.7979 17.627L34.3832 19.2986L31.4961 17.2725L28.6089 19.2986L25.7218 17.2725L22.8347 19.2986L20 17.2725L17.1129 19.2986L14.2257 17.2725L11.3386 19.2986L8.50395 17.2725L5.61682 19.2986L3.20212 17.627L2.25723 18.8427L5.61682 21.2234L8.50395 19.1973Z" fill="#81B3D2"/>
<path d="M37.2179 15.7531C37.2179 15.4492 37.2704 14.4361 37.2179 14.2335C36.8504 6.33164 29.2913 0 20 0C10.7087 0 3.09712 6.33164 2.72967 14.2335C2.72967 14.4361 2.72967 15.4492 2.72967 15.7531H37.2179ZM20 1.51959C28.399 1.51959 35.3281 7.19274 35.6431 14.2335H4.30447C4.67193 7.19274 11.6011 1.51959 20 1.51959Z" fill="#81B3D2"/>
<path d="M20 8.61109C20.5798 8.61109 21.0499 8.15752 21.0499 7.59802C21.0499 7.03852 20.5798 6.58496 20 6.58496C19.4202 6.58496 18.9501 7.03852 18.9501 7.59802C18.9501 8.15752 19.4202 8.61109 20 8.61109Z" fill="#81B3D2"/>
<path d="M15.8005 6.12866C16.3803 6.12866 16.8504 5.6751 16.8504 5.1156C16.8504 4.5561 16.3803 4.10254 15.8005 4.10254C15.2207 4.10254 14.7506 4.5561 14.7506 5.1156C14.7506 5.6751 15.2207 6.12866 15.8005 6.12866Z" fill="#81B3D2"/>
<path d="M24.1995 6.12866C24.7793 6.12866 25.2493 5.6751 25.2493 5.1156C25.2493 4.5561 24.7793 4.10254 24.1995 4.10254C23.6196 4.10254 23.1496 4.5561 23.1496 5.1156C23.1496 5.6751 23.6196 6.12866 24.1995 6.12866Z" fill="#81B3D2"/>
</symbol><symbol id="icon-cross" viewBox="0 0 23 23">
<path d="M22.2 2.8L19.4 0L11.1 8.3L2.8 0L0 2.8L8.3 11.1L0 19.4L2.8 22.2L11.1 13.9L19.4 22.2L22.2 19.4L13.9 11.1L22.2 2.8Z"/>
</symbol><symbol id="icon-facebook" viewBox="0 0 9 19">
<path d="M6.3 3.4C7.1 3.4 7.9 3.4 8.7 3.4C8.7 2.3 8.7 1.2 8.7 0C7.7 0 6.8 0 5.8 0C2.7 0.2 1.5 2.4 1.9 6.1H0V9.6H2C2 12.7 2 15.8 2 18.9C3.3 18.9 4.6 18.9 5.8 18.9C5.8 15.8 5.8 12.7 5.8 9.6H8.7V6.1H5.8C5.8 5.1 5.8 3.7 6.3 3.4Z" fill="white"/>
</symbol><symbol id="icon-gift" viewBox="0 0 32 38">
<path d="M30.5778 11.2058H30.527H18.1841C25.0921 7.76156 25.6508 5.58358 25.3968 4.36796C24.8381 2.39259 22.5524 0.873068 20.419 1.68348C17.6254 2.74714 16.8635 6.9005 16.1016 9.88889C15.1365 6.84985 14.2222 3.0004 12.0381 1.02502C11.4286 0.467863 10.5143 -0.0892942 9.14286 0.0120071C7.11111 0.21461 4.21587 2.69649 5.43492 5.48228C6.55238 8.16676 10.2603 9.88888 12.7492 11.2565H1.42222C0.609524 11.2565 0 11.9149 0 12.6747V18.3475C0 19.158 0.660317 19.7658 1.42222 19.7658H1.5746V38H30.527V19.7658H30.5778C31.3905 19.7658 32 19.1073 32 18.3475V12.6747C32 11.8643 31.3397 11.2058 30.5778 11.2058ZM21.2317 2.94975C22.2984 2.79779 23.7206 3.6082 23.873 4.57057C24.0762 5.93813 22.1968 7.2044 21.3333 7.76156C20.0635 8.62262 18.8444 9.07847 17.6762 9.78758C18.0825 7.91351 18.946 3.25365 21.2317 2.94975ZM9.75238 7.91351C8.63492 7.15375 6.50159 5.68488 6.55238 4.01341C6.60317 2.18999 9.44762 0.721116 10.9714 2.08868C12.9016 3.76016 13.8159 7.66026 14.527 10.3954C12.9016 9.58498 11.3778 8.97717 9.75238 7.91351ZM12.7492 36.4805H3.04762V19.7658H12.7492V36.4805ZM12.7492 18.2462H1.52381V12.7253H12.7492V18.2462ZM17.8286 36.4805H14.2222V12.7253H17.8286V36.4805ZM29.0032 36.4805H19.3524V19.7658H29.054V36.4805H29.0032ZM30.4762 18.2462H19.3524V12.7253H30.4762V18.2462Z" fill="#81B3D2"/>
</symbol><symbol id="icon-house" viewBox="0 0 39 37">
<path d="M15.4015 33.2194H23.7549V21.0613H15.4015V33.2194ZM22.2408 31.7441H16.9155V22.5365H22.1886V31.7441H22.2408Z" fill="#81B3D2"/>
<path d="M37.9036 20.0431L39 18.9748L33.8313 13.9386V0.203483H26.6265V6.91843L19.4739 0L0 19.0257L1.09639 20.094L5.16867 16.126V35.3552H3.13253V36.8305H36.494V35.3552H33.8313V16.0752L37.9036 20.0431ZM28.1406 1.72961H32.2651V12.4633L28.1406 8.44455V1.72961ZM32.3173 35.3043H6.73494V14.5999L19.4739 2.13657L32.2651 14.5999V35.3043H32.3173Z" fill="#81B3D2"/>
<path d="M15.5582 13.8369C15.5582 16.0243 17.3855 17.8048 19.5783 17.8048C21.8233 17.8048 23.6506 16.0243 23.6506 13.8369C23.6506 11.6494 21.8233 9.9198 19.5783 9.9198C17.3333 9.9198 15.5582 11.6494 15.5582 13.8369ZM19.5783 11.2933C20.9879 11.2933 22.1888 12.4125 22.1888 13.8369C22.1888 15.2104 21.0402 16.3804 19.5783 16.3804C18.1687 16.3804 16.9679 15.2612 16.9679 13.8369C16.9679 12.4633 18.1687 11.2933 19.5783 11.2933Z" fill="#81B3D2"/>
<path d="M10.3895 21.0613H8.82324V23.0452H10.3895V21.0613Z" fill="#81B3D2"/>
<path d="M13.4698 21.0613H11.9036V23.0452H13.4698V21.0613Z" fill="#81B3D2"/>
<path d="M10.3895 24.1128H8.82324V26.0968H10.3895V24.1128Z" fill="#81B3D2"/>
<path d="M13.4698 24.1128H11.9036V26.0968H13.4698V24.1128Z" fill="#81B3D2"/>
<path d="M27.0443 21.0613H25.478V23.0452H27.0443V21.0613Z" fill="#81B3D2"/>
<path d="M30.1769 21.0613H28.6106V23.0452H30.1769V21.0613Z" fill="#81B3D2"/>
<path d="M27.0443 24.1128H25.478V26.0968H27.0443V24.1128Z" fill="#81B3D2"/>
<path d="M30.1769 24.1128H28.6106V26.0968H30.1769V24.1128Z" fill="#81B3D2"/>
</symbol><symbol id="icon-menu" viewBox="0 0 23 22">
<path d="M22.9 0H0V4H22.9V0Z"/>
<path d="M22.9 9H0V13H22.9V9Z"/>
<path d="M22.9 18H0V22H22.9V18Z"/>
</symbol><symbol id="icon-twitter" viewBox="0 0 18 15">
<path d="M11.3 0.166728C13 -0.333272 14.4 0.366728 15 1.26673C15.7 1.06673 16.4 0.766728 17.1 0.566728C17.1 1.36673 16.6 2.06673 16.2 2.26673C16.9 2.46673 17.5 1.76673 17.5 1.76673C17.3 2.76673 16.5 3.46673 15.9 3.76673C15.7 10.3667 12.6 14.7667 5.5 14.5667C5 14.5667 5.6 14.5667 5 14.5667C4.6 14.5667 0.7 14.1667 0 12.7667C2.3 12.9667 4 12.3667 4.8 11.6667C3.8 11.3667 2 11.1667 1.7 8.76673C2.1 8.86673 2.3 8.96673 3 8.86673C1.8 8.06673 0.4 7.36673 0.5 5.16673C0.8 5.46673 1.6 5.66673 1.9 5.66673C1.2 5.46673 -0.1 2.36673 1 0.866728C2.9 2.66673 4.8 4.36673 8.4 4.56673C8.5 2.26673 9.5 0.766728 11.3 0.166728Z" fill="white"/>
</symbol><symbol id="icon-youtube" viewBox="0 0 20 14">
<path d="M17.1 0H2.8C1.3 0 0 1.3 0 2.8V11.1C0 12.7 1.3 14 2.8 14H17.1C18.7 14 19.9 12.7 19.9 11.2V2.8C20 1.3 18.7 0 17.1 0ZM7 10.4V3.6L13.8 7L7 10.4Z" fill="white"/>
</symbol><symbol id="intro-triangle" viewBox="0 0 320 37">
<path fill-rule="evenodd" clip-rule="evenodd" d="M-225 0H159V37L-225 0Z" fill="white"/>
<path fill-rule="evenodd" clip-rule="evenodd" d="M543 0H159V37L543 0Z" fill="white"/>
</symbol><symbol id="like-icon" viewBox="0 0 23 21">
<path d="M12.9636 3.78L12.3364 6.825L11.7091 9.45H14.3227H20.8045V11.55C20.8045 11.55 20.8045 11.55 20.8045 11.655L17.7727 18.9H8.36364V8.4L12.9636 3.78ZM2.09091 10.5V18.9V10.5ZM13.8 0L6.9 6.93C6.48182 7.245 6.27273 7.77 6.27273 8.4V18.9C6.27273 20.055 7.21364 21 8.36364 21H17.7727C18.6091 21 19.3409 20.475 19.6545 19.74L22.7909 12.285C22.8955 12.075 22.8955 11.76 22.8955 11.55V9.45H23C23 8.295 22.0591 7.35 20.9091 7.35H14.3227L15.3682 2.52V2.205C15.3682 1.785 15.1591 1.365 14.95 1.05L13.8 0ZM4.18182 8.4H0V21H4.18182V8.4Z"/>
</symbol><symbol id="mail-icon" viewBox="0 0 16 12">
<path d="M8 8C7.7 8 7.5 7.9 7 7.7L0 4V11C0 11.5 0.5 12 1 12H15C15.5 12 16 11.5 16 11V4L9 7.7C8.5 7.9 8.3 8 8 8ZM15 0H1C0.5 0 0 0.5 0 1V1.8L8 6L16 1.8V1C16 0.5 15.5 0 15 0Z" fill="black"/>
</symbol><symbol id="main-photo-sedona-mobile" viewBox="0 0 229 39">
<path d="M27.3156 26.6366C27.3156 26.8879 27.2655 27.0889 27.2655 27.2899C27.0149 29.3003 26.3633 31.2603 25.3108 33.0696C24.2583 34.8789 22.8048 36.2861 21.0506 37.2912C20.399 37.5928 19.6973 37.8441 18.9956 38.0954C18.2939 38.2964 17.5923 38.4974 16.8906 38.6482C16.2891 38.7487 15.7378 38.8492 15.1364 38.8995C14.5349 38.9497 13.9836 39 13.4323 39C13.332 39 13.2318 39 13.1315 39C13.0313 39 12.9311 39 12.8308 39C10.5253 38.8995 8.21974 38.3969 5.96432 37.442C3.75903 36.4369 1.75421 35.1804 0 33.5722L4.6612 26.0838C4.71132 26.134 4.71132 26.134 4.76144 26.1843C4.76144 26.1843 4.81156 26.2345 4.86168 26.2848C5.9142 27.4407 7.11709 28.5464 8.42022 29.5013C9.72335 30.4562 11.2771 31.009 12.9812 31.1095C13.0313 31.1095 13.0814 31.1095 13.1315 31.1598C13.1817 31.1598 13.2318 31.2101 13.2819 31.2101C13.332 31.2101 13.3821 31.2101 13.4323 31.2603C13.4824 31.2603 13.5325 31.3106 13.5826 31.3106C13.733 31.3106 13.8833 31.3106 14.0838 31.2603C14.2342 31.2603 14.4347 31.2101 14.585 31.1598C15.1865 31.0593 15.7879 30.808 16.3392 30.4562C16.8906 30.1044 17.3417 29.7023 17.6424 29.1495C17.6925 29.049 17.7426 28.9987 17.7426 28.8982C17.7927 28.7977 17.8429 28.7474 17.8429 28.6469C17.9431 28.3956 17.9932 28.1443 17.9932 27.893C18.0433 27.6418 18.0433 27.4407 18.0433 27.2397C18.0433 26.1843 17.5923 25.2796 16.6901 24.576C15.7879 23.8724 14.7855 23.3196 13.733 22.9175C13.2819 22.7668 12.8809 22.616 12.5301 22.5155C12.1291 22.4149 11.7783 22.3144 11.4274 22.2642C11.3773 22.2642 11.3272 22.2642 11.3272 22.2139C11.2771 22.2139 11.227 22.1637 11.227 22.1637C9.32239 21.7113 7.51806 20.9575 5.86408 19.9021C4.21011 18.8466 3.05734 17.3892 2.40578 15.4291C2.30554 15.0271 2.2053 14.625 2.10506 14.2229C2.00482 13.7706 1.95469 13.3686 1.90457 12.866C1.85445 12.7152 1.85445 12.5644 1.85445 12.4137C1.85445 12.2629 1.85445 12.1121 1.85445 11.9613C1.85445 11.6598 1.85445 11.3582 1.90457 11.0064C1.90457 10.7049 1.95469 10.4033 2.05494 10.0515C2.15518 9.29768 2.35566 8.49356 2.65638 7.73969C2.90698 6.98582 3.25782 6.28222 3.70891 5.62887C4.96192 3.5683 6.56577 2.11082 8.52046 1.20619C10.3749 0.45232 12.4299 0 14.5349 0C15.0361 0 15.5373 0.0502577 16.0886 0.100515C16.5898 0.150773 17.1412 0.251289 17.6925 0.301546C19.0959 0.552835 20.4992 0.904639 21.8525 1.45747C23.2057 2.01031 24.5089 2.66366 25.6616 3.36727L22.4539 10.5541C21.4014 9.80026 20.2988 9.09665 19.146 8.49356C17.9932 7.89046 16.7402 7.63917 15.387 7.63917C15.2867 7.63917 15.2366 7.63917 15.1364 7.63917C15.0361 7.63917 14.986 7.63917 14.8858 7.63917C13.9836 7.73969 13.1817 8.14175 12.3797 8.84536C11.6279 9.54897 11.227 10.2526 11.227 11.0567C11.227 11.1572 11.227 11.308 11.2771 11.4085C11.2771 11.509 11.3272 11.6598 11.4274 11.7603C11.5277 12.0116 11.6279 12.2629 11.8284 12.5142C12.0289 12.7655 12.2294 12.9665 12.48 13.1675C12.9311 13.5193 13.5325 13.8209 14.3344 14.1224C15.1364 14.424 15.9884 14.6753 16.8906 14.9768C17.6424 15.1778 18.3441 15.3789 19.0457 15.5296C19.7474 15.6804 20.3489 15.8814 20.8 16.0322C22.9551 16.7861 24.6091 18.0928 25.7118 19.9021C26.8144 21.7113 27.3657 23.6211 27.4158 25.6314C27.4158 25.732 27.4158 25.7822 27.4158 25.7822C27.4158 25.8325 27.4158 25.8827 27.4158 25.8827C27.3657 26.134 27.3657 26.3853 27.3156 26.6366ZM57.3878 29.7526V38.0954H34.6332V0.904639H57.3878V9.04639H44.6071V15.5296H56.636V23.4704H44.6071V29.7526H57.3878ZM95.78 28.2951C94.5772 30.8582 92.8731 32.9691 90.6176 34.5773C88.8133 35.8338 86.8085 36.6881 84.7034 37.1405C82.5483 37.5928 80.3931 37.8943 78.2379 37.9948C77.6365 38.0451 76.9849 38.0451 76.3835 38.0451C75.782 38.0451 75.1806 38.0451 74.6292 38.0451H64.4548V0.854381H75.2808C75.8822 0.854381 76.4336 0.854381 77.035 0.854381C77.6365 0.854381 78.2379 0.854381 78.7892 0.904639C80.8943 1.00515 82.9492 1.3067 85.0042 1.75902C87.0591 2.21134 88.9136 3.06572 90.6176 4.32217C92.7728 5.8299 94.4769 7.84021 95.6798 10.3531C96.8827 12.866 97.5844 15.4291 97.7347 18.0425C97.7849 18.2938 97.7849 18.4948 97.7849 18.7461C97.7849 18.9974 97.7849 19.1985 97.7849 19.4497C97.7849 19.5503 97.7849 19.701 97.7849 19.8518C97.7849 20.0026 97.7849 20.1031 97.7849 20.2539C97.6345 23.0683 96.9829 25.732 95.78 28.2951ZM87.5603 19.0979C87.5603 18.9472 87.5603 18.7964 87.5102 18.6456C87.4099 17.1881 87.0591 15.7307 86.4576 14.3737C85.8562 13.0168 85.0042 11.9111 83.9015 11.0567C83.0996 10.4033 82.1974 9.95103 81.195 9.69974C80.1926 9.44845 79.1902 9.34794 78.1377 9.29768C77.9372 9.29768 77.7367 9.29768 77.5362 9.29768C77.3357 9.29768 77.1353 9.29768 76.9348 9.29768H74.3786V29.8028C74.4789 29.8028 74.6292 29.8028 74.7796 29.8531C74.93 29.8531 75.0302 29.9033 75.1806 29.9033C75.3309 29.9033 75.4813 29.9033 75.5815 29.9536C75.6818 29.9536 75.8321 30.0039 75.9324 30.0039C76.3333 30.0039 76.7343 30.0039 77.1353 29.9536C77.5863 29.9536 77.9873 29.9034 78.3382 29.8531C79.3406 29.7526 80.343 29.6018 81.2952 29.3505C82.2475 29.0992 83.1497 28.6469 83.9015 28.1443C85.1545 27.2397 86.0567 26.0335 86.6581 24.4755C87.2596 22.9175 87.5603 21.3093 87.5603 19.6508C87.5603 19.3995 87.5603 19.2487 87.5603 19.0979ZM142.492 21.058C142.492 21.4601 142.442 21.8621 142.342 22.2642C142.242 23.0683 142.141 23.8724 141.891 24.6765C141.69 25.4807 141.39 26.2848 141.089 27.0387C139.435 30.808 136.929 33.7229 133.471 35.8338C130.012 37.8943 126.404 38.9497 122.594 38.9497C122.344 38.9497 122.043 38.9497 121.793 38.8995C121.542 38.8995 121.291 38.8492 120.991 38.8492C119.687 38.7487 118.384 38.4974 117.081 38.1456C115.778 37.7938 114.525 37.2912 113.322 36.6881C110.064 34.9794 107.508 32.5168 105.654 29.3505C103.799 26.1843 102.847 22.8673 102.847 19.4497C102.847 18.9472 102.847 18.4446 102.897 17.942C102.947 17.4394 102.997 16.8866 103.148 16.384C103.348 15.3789 103.599 14.3737 103.95 13.3183C104.3 12.3131 104.701 11.308 105.253 10.3531C107.057 7.03608 109.513 4.5232 112.721 2.76418C115.878 1.00515 119.236 0.150773 122.695 0.150773C123.146 0.150773 123.647 0.150773 124.098 0.201031C124.599 0.251289 125.05 0.301546 125.501 0.301546C126.955 0.502577 128.358 0.854381 129.762 1.35696C131.165 1.85954 132.518 2.51289 133.821 3.31701C136.578 5.12629 138.733 7.4884 140.237 10.4536C141.74 13.4188 142.492 16.5348 142.492 19.7513C142.492 20.2539 142.492 20.6559 142.492 21.058ZM132.368 18.9472C132.368 18.6959 132.318 18.4948 132.318 18.2436C132.117 16.5851 131.616 14.9768 130.814 13.4188C130.012 11.8608 128.859 10.6546 127.456 9.80026C127.055 9.59923 126.704 9.44845 126.303 9.29768C125.902 9.14691 125.552 8.99613 125.151 8.89562C124.75 8.7951 124.399 8.74484 123.998 8.69459C123.597 8.64433 123.246 8.59407 122.845 8.59407C120.89 8.59407 119.036 9.19716 117.382 10.4536C115.728 11.7101 114.525 13.3686 113.873 15.4291C113.823 15.5296 113.823 15.5799 113.773 15.6804C113.773 15.7809 113.723 15.8312 113.723 15.9317C113.623 16.2835 113.523 16.6353 113.422 16.9871C113.322 17.3389 113.272 17.741 113.172 18.143C113.122 18.3943 113.122 18.6959 113.072 18.9472C113.072 19.1985 113.021 19.4497 113.021 19.7513C113.021 19.9021 113.021 20.0528 113.021 20.2036C113.021 20.3544 113.021 20.5052 113.072 20.6559C113.172 22.7165 113.823 24.6765 114.976 26.5361C116.129 28.3956 117.683 29.6018 119.738 30.2049C119.988 30.3054 120.189 30.3557 120.439 30.4059C120.69 30.4562 120.94 30.5064 121.191 30.5567C121.442 30.607 121.642 30.607 121.893 30.6572C122.143 30.6572 122.344 30.7075 122.594 30.7075C124.649 30.7075 126.504 30.1044 128.158 28.8479C129.812 27.6418 131.015 25.9832 131.716 23.9227C131.817 23.5206 131.917 23.1186 132.017 22.7165C132.117 22.2642 132.167 21.8621 132.218 21.4098C132.268 21.1585 132.268 20.857 132.318 20.6057C132.318 20.3544 132.368 20.1031 132.368 19.8518C132.368 19.4497 132.368 19.1985 132.368 18.9472ZM176.223 38.0954L162.139 18.8969C161.738 18.4446 161.388 17.8918 161.037 17.2384C160.686 16.5851 160.335 15.9317 160.034 15.2281C159.784 14.7255 159.583 14.2229 159.383 13.7204C159.182 13.2178 158.982 12.7655 158.781 12.3634C158.982 13.5696 159.132 14.7758 159.232 16.0322C159.333 17.2887 159.383 18.5451 159.383 19.7513V38.0954H149.609V0.904639H159.383L173.366 20.0026C173.717 20.5554 174.068 21.1082 174.369 21.7113C174.72 22.3144 175.02 22.9175 175.321 23.5709C175.572 24.0735 175.772 24.576 176.023 25.0786C176.273 25.5812 176.474 26.0838 176.724 26.5361C176.674 26.0838 176.624 25.6817 176.574 25.3299C176.524 24.9278 176.474 24.5258 176.424 24.1237C176.323 23.3698 176.273 22.5657 176.273 21.7113C176.223 20.9072 176.223 20.0528 176.223 19.1985V0.954897H185.947V38.1456H176.223V38.0954ZM218.876 38.0954L217.021 31.4111H202.687L200.782 38.1456H190.758L203.489 0.954897H216.119L229 38.1456H218.876V38.0954ZM211.107 11.9111C210.907 11.308 210.706 10.7049 210.556 10.0515C210.405 9.3982 210.255 8.7951 210.105 8.14175C210.004 7.89046 209.954 7.68943 209.954 7.4884C209.904 7.28737 209.854 7.08634 209.854 6.88531C209.804 7.08634 209.754 7.28737 209.704 7.4884C209.654 7.68943 209.603 7.94072 209.553 8.14175C209.503 8.24227 209.503 8.29253 209.503 8.34278C209.503 8.39304 209.503 8.49356 209.453 8.54381C209.353 9.14691 209.202 9.69974 209.052 10.2526C208.902 10.8054 208.751 11.3582 208.601 11.9111L204.842 24.2242H214.916L211.107 11.9111Z" fill="white"/>
</symbol><symbol id="main-photo-sedona-tablet" viewBox="0 0 457 78">
<path d="M54.5 53C54.5 53.5 54.4 53.9 54.4 54.3C53.9 58.3 52.6 62.2 50.5 65.8C48.4 69.4 45.5 72.2 42 74.2C40.7 74.8 39.3 75.3 37.9 75.8C36.5 76.2 35.1 76.6 33.7 76.9C32.5 77.1 31.4 77.3 30.2 77.4C29 77.5 27.9 77.6 26.8 77.6C26.6 77.6 26.4 77.6 26.2 77.6C26 77.6 25.8 77.6 25.6 77.6C21 77.4 16.4 76.4 11.9 74.5C7.5 72.5 3.5 70 0 66.8L9.3 51.9C9.4 52 9.4 52 9.5 52.1C9.5 52.1 9.6 52.2 9.7 52.3C11.8 54.6 14.2 56.8 16.8 58.7C19.4 60.6 22.5 61.7 25.9 61.9C26 61.9 26.1 61.9 26.2 62C26.3 62 26.4 62.1 26.5 62.1C26.6 62.1 26.7 62.1 26.8 62.2C26.9 62.2 27 62.3 27.1 62.3C27.4 62.3 27.7 62.3 28.1 62.2C28.4 62.2 28.8 62.1 29.1 62C30.3 61.8 31.5 61.3 32.6 60.6C33.7 59.9 34.6 59.1 35.2 58C35.3 57.8 35.4 57.7 35.4 57.5C35.5 57.3 35.6 57.2 35.6 57C35.8 56.5 35.9 56 35.9 55.5C36 55 36 54.6 36 54.2C36 52.1 35.1 50.3 33.3 48.9C31.5 47.5 29.5 46.4 27.4 45.6C26.5 45.3 25.7 45 25 44.8C24.2 44.6 23.5 44.4 22.8 44.3C22.7 44.3 22.6 44.3 22.6 44.2C22.5 44.2 22.4 44.1 22.4 44.1C18.6 43.2 15 41.7 11.7 39.6C8.4 37.5 6.1 34.6 4.8 30.7C4.6 29.9 4.4 29.1 4.2 28.3C4 27.4 3.9 26.6 3.8 25.6C3.7 25.3 3.7 25 3.7 24.7C3.7 24.4 3.7 24.1 3.7 23.8C3.7 23.2 3.7 22.6 3.8 21.9C3.8 21.3 3.9 20.7 4.1 20C4.3 18.5 4.7 16.9 5.3 15.4C5.8 13.9 6.5 12.5 7.4 11.2C9.9 7.1 13.1 4.2 17 2.4C20.7 0.9 24.8 0 29 0C30 0 31 0.1 32.1 0.2C33.1 0.3 34.2 0.5 35.3 0.6C38.1 1.1 40.9 1.8 43.6 2.9C46.3 4 48.9 5.3 51.2 6.7L44.8 21C42.7 19.5 40.5 18.1 38.2 16.9C35.9 15.7 33.4 15.2 30.7 15.2C30.5 15.2 30.4 15.2 30.2 15.2C30 15.2 29.9 15.2 29.7 15.2C27.9 15.4 26.3 16.2 24.7 17.6C23.2 19 22.4 20.4 22.4 22C22.4 22.2 22.4 22.5 22.5 22.7C22.5 22.9 22.6 23.2 22.8 23.4C23 23.9 23.2 24.4 23.6 24.9C24 25.4 24.4 25.8 24.9 26.2C25.8 26.9 27 27.5 28.6 28.1C30.2 28.7 31.9 29.2 33.7 29.8C35.2 30.2 36.6 30.6 38 30.9C39.4 31.2 40.6 31.6 41.5 31.9C45.8 33.4 49.1 36 51.3 39.6C53.5 43.2 54.6 47 54.7 51C54.7 51.2 54.7 51.3 54.7 51.3C54.7 51.4 54.7 51.5 54.7 51.5C54.6 52 54.6 52.5 54.5 53ZM114.5 59.2V75.8H69.1V1.8H114.5V18H89V30.9H113V46.7H89V59.2H114.5ZM191.1 56.3C188.7 61.4 185.3 65.6 180.8 68.8C177.2 71.3 173.2 73 169 73.9C164.7 74.8 160.4 75.4 156.1 75.6C154.9 75.7 153.6 75.7 152.4 75.7C151.2 75.7 150 75.7 148.9 75.7H128.6V1.7H150.2C151.4 1.7 152.5 1.7 153.7 1.7C154.9 1.7 156.1 1.7 157.2 1.8C161.4 2 165.5 2.6 169.6 3.5C173.7 4.4 177.4 6.1 180.8 8.6C185.1 11.6 188.5 15.6 190.9 20.6C193.3 25.6 194.7 30.7 195 35.9C195.1 36.4 195.1 36.8 195.1 37.3C195.1 37.8 195.1 38.2 195.1 38.7C195.1 38.9 195.1 39.2 195.1 39.5C195.1 39.8 195.1 40 195.1 40.3C194.8 45.9 193.5 51.2 191.1 56.3ZM174.7 38C174.7 37.7 174.7 37.4 174.6 37.1C174.4 34.2 173.7 31.3 172.5 28.6C171.3 25.9 169.6 23.7 167.4 22C165.8 20.7 164 19.8 162 19.3C160 18.8 158 18.6 155.9 18.5C155.5 18.5 155.1 18.5 154.7 18.5C154.3 18.5 153.9 18.5 153.5 18.5H148.4V59.3C148.6 59.3 148.9 59.3 149.2 59.4C149.5 59.4 149.7 59.5 150 59.5C150.3 59.5 150.6 59.5 150.8 59.6C151 59.6 151.3 59.7 151.5 59.7C152.3 59.7 153.1 59.7 153.9 59.6C154.8 59.6 155.6 59.5 156.3 59.4C158.3 59.2 160.3 58.9 162.2 58.4C164.1 57.9 165.9 57 167.4 56C169.9 54.2 171.7 51.8 172.9 48.7C174.1 45.6 174.7 42.4 174.7 39.1C174.7 38.6 174.7 38.3 174.7 38ZM284.3 41.9C284.3 42.7 284.2 43.5 284 44.3C283.8 45.9 283.6 47.5 283.1 49.1C282.7 50.7 282.1 52.3 281.5 53.8C278.2 61.3 273.2 67.1 266.3 71.3C259.4 75.4 252.2 77.5 244.6 77.5C244.1 77.5 243.5 77.5 243 77.4C242.5 77.4 242 77.3 241.4 77.3C238.8 77.1 236.2 76.6 233.6 75.9C231 75.2 228.5 74.2 226.1 73C219.6 69.6 214.5 64.7 210.8 58.4C207.1 52.1 205.2 45.5 205.2 38.7C205.2 37.7 205.2 36.7 205.3 35.7C205.4 34.7 205.5 33.6 205.8 32.6C206.2 30.6 206.7 28.6 207.4 26.5C208.1 24.5 208.9 22.5 210 20.6C213.6 14 218.5 9 224.9 5.5C231.2 2 237.9 0.3 244.8 0.3C245.7 0.3 246.7 0.3 247.6 0.4C248.6 0.5 249.5 0.6 250.4 0.6C253.3 1 256.1 1.7 258.9 2.7C261.7 3.7 264.4 5 267 6.6C272.5 10.2 276.8 14.9 279.8 20.8C282.8 26.7 284.3 32.9 284.3 39.3C284.3 40.3 284.3 41.1 284.3 41.9ZM264.1 37.7C264.1 37.2 264 36.8 264 36.3C263.6 33 262.6 29.8 261 26.7C259.4 23.6 257.1 21.2 254.3 19.5C253.5 19.1 252.8 18.8 252 18.5C251.2 18.2 250.5 17.9 249.7 17.7C248.9 17.5 248.2 17.4 247.4 17.3C246.6 17.2 245.9 17.1 245.1 17.1C241.2 17.1 237.5 18.3 234.2 20.8C230.9 23.3 228.5 26.6 227.2 30.7C227.1 30.9 227.1 31 227 31.2C227 31.4 226.9 31.5 226.9 31.7C226.7 32.4 226.5 33.1 226.3 33.8C226.1 34.5 226 35.3 225.8 36.1C225.7 36.6 225.7 37.2 225.6 37.7C225.6 38.2 225.5 38.7 225.5 39.3C225.5 39.6 225.5 39.9 225.5 40.2C225.5 40.5 225.5 40.8 225.6 41.1C225.8 45.2 227.1 49.1 229.4 52.8C231.7 56.5 234.8 58.9 238.9 60.1C239.4 60.3 239.8 60.4 240.3 60.5C240.8 60.6 241.3 60.7 241.8 60.8C242.3 60.9 242.7 60.9 243.2 61C243.7 61 244.1 61.1 244.6 61.1C248.7 61.1 252.4 59.9 255.7 57.4C259 55 261.4 51.7 262.8 47.6C263 46.8 263.2 46 263.4 45.2C263.6 44.3 263.7 43.5 263.8 42.6C263.9 42.1 263.9 41.5 264 41C264 40.5 264.1 40 264.1 39.5C264.1 38.7 264.1 38.2 264.1 37.7ZM351.6 75.8L323.5 37.6C322.7 36.7 322 35.6 321.3 34.3C320.6 33 319.9 31.7 319.3 30.3C318.8 29.3 318.4 28.3 318 27.3C317.6 26.3 317.2 25.4 316.8 24.6C317.2 27 317.5 29.4 317.7 31.9C317.9 34.4 318 36.9 318 39.3V75.8H298.5V1.8H318L345.9 39.8C346.6 40.9 347.3 42 347.9 43.2C348.6 44.4 349.2 45.6 349.8 46.9C350.3 47.9 350.7 48.9 351.2 49.9C351.7 50.9 352.1 51.9 352.6 52.8C352.5 51.9 352.4 51.1 352.3 50.4C352.2 49.6 352.1 48.8 352 48C351.8 46.5 351.7 44.9 351.7 43.2C351.6 41.6 351.6 39.9 351.6 38.2V1.9H371V75.9H351.6V75.8ZM436.7 75.8L433 62.5H404.4L400.6 75.9H380.6L406 1.9H431.2L456.9 75.9H436.7V75.8ZM421.2 23.7C420.8 22.5 420.4 21.3 420.1 20C419.8 18.7 419.5 17.5 419.2 16.2C419 15.7 418.9 15.3 418.9 14.9C418.8 14.5 418.7 14.1 418.7 13.7C418.6 14.1 418.5 14.5 418.4 14.9C418.3 15.3 418.2 15.8 418.1 16.2C418 16.4 418 16.5 418 16.6C418 16.7 418 16.9 417.9 17C417.7 18.2 417.4 19.3 417.1 20.4C416.8 21.5 416.5 22.6 416.2 23.7L408.7 48.2H428.8L421.2 23.7Z" fill="white"/>
</symbol><symbol id="main-photo-text-desktop" viewBox="0 0 460 350">
<path d="M165.4 70.0001L165.2 70.2001C163.8 71.7001 162.2 72.4001 160.7 72.4001L163.5 67.5001C165.3 64.4001 163.6 61.4001 160.8 61.4001C158.5 61.4001 156.7 62.3001 155 65.3001L153.5 67.9001L152.3 70.0001L152.1 70.2001C149.9 72.7001 147.8 74.7001 146.5 74.7001C145.8 74.7001 145.5 74.2001 146.2 73.1001L152.6 61.9001H155L155.9 60.5001H153.4L156.2 55.6001H153.2L150.4 60.5001H147.7L146.8 61.9001H149.5L143.5 72.3001C142.2 74.5001 143.1 76.6001 145.5 76.6001C147.2 76.6001 149.2 75.3001 151 73.5001C151 77.3001 156.3 78.1001 159.5 74.0001H160.2C162 74.0001 164.8 72.9001 166.3 71.1001C166.3 70.6001 165.8 70.2001 165.4 70.0001ZM159 70.2001H158.9C157.9 70.2001 157.1 71.0001 157.1 72.0001C157.1 72.4001 157.2 72.7001 157.4 73.0001V73.1001C156 75.5001 152.6 75.1001 154.3 71.9001L156.6 68.0001L158 65.6001C160.1 62.0001 163 63.4001 161.2 66.5001L159 70.2001Z" fill="#766458"/>
<path d="M206.9 70.0001L206.7 70.2001C204.5 72.7001 201.8 74.7001 199.7 74.7001C197.9 74.7001 196.8 73.5001 198.1 71.1001L198.4 70.6001C200.3 71.4001 204 71.0001 206.2 67.1001L206.6 66.4001C208.2 63.6001 206.7 61.6001 204.2 61.6001C201.8 61.6001 199.9 62.9001 198.6 65.1001L195.7 70.1001L195.5 70.3001C193.3 72.8001 191.2 74.8001 189.9 74.8001C189.2 74.8001 188.9 74.3001 189.6 73.2001L193.9 65.6001C195.2 63.3001 194 61.7001 192.3 61.7001C191 61.7001 189.6 62.4001 188.1 64.0001L192.9 55.7001H189.9L181.6 70.0001L181.4 70.2001C179.2 72.7001 177.1 74.7001 175.8 74.7001C175.1 74.7001 174.8 74.2001 175.5 73.1001L181.9 61.9001H184.3L185.2 60.5001H182.7L185.5 55.6001H182.5L179.7 60.5001H177L176.1 61.9001H178.8L172.8 72.3001C171.5 74.5001 172.4 76.6001 174.8 76.6001C176 76.6001 177.3 76.0001 178.6 75.0001L177.8 76.3001H180.8L185.3 68.4001C189.9 62.6001 191.9 63.4001 190.7 65.6001L186.8 72.4001C185.5 74.6001 186.4 76.7001 188.8 76.7001C190.6 76.7001 192.6 75.3001 194.4 73.5001C194.5 75.4001 196.1 76.7001 198.5 76.7001C201.9 76.7001 205.3 74.1001 207.7 71.2001C207.8 70.6001 207.3 70.2001 206.9 70.0001ZM201.2 65.8001C202.9 62.8001 206 63.3001 204.2 66.4001L203.8 67.1001C202.4 69.5001 200.4 69.5001 199.3 69.1001L201.2 65.8001Z" fill="#766458"/>
<path d="M316 70.0001L315.8 70.2001C314.7 71.5001 313.4 72.6001 312.2 73.5001C313.2 70.6001 312.9 66.3001 314.8 62.4001L312.6 61.2001C311.4 62.9001 308.7 66.8001 305.9 70.0001L305.7 70.2001C303.5 72.7001 301.4 74.7001 300.1 74.7001C299.4 74.7001 299.1 74.2001 299.8 73.1001L306.2 61.9001H303.2L297.9 71.2001C295.6 73.3001 293.9 74.4001 293.3 74.2001C292.6 73.9001 293.3 72.8001 293.7 72.1001L299.5 61.9001H296.5L291.8 70.0001L291.6 70.2001C290.2 71.7001 288.6 72.4001 287.1 72.4001L289.9 67.5001C291.7 64.4001 290 61.4001 287.2 61.4001C284.9 61.4001 283.1 62.3001 281.4 65.3001L279.9 67.9001L278.7 70.0001L278.5 70.2001C276.3 72.7001 273.6 74.7001 271.5 74.7001C269.7 74.7001 268.6 73.5001 269.9 71.1001L270.2 70.6001C272.1 71.4001 275.8 71.0001 278 67.1001L278.4 66.4001C280 63.6001 278.5 61.6001 276 61.6001C273.6 61.6001 271.7 62.9001 270.4 65.1001L267.5 70.1001L267.3 70.3001C264.8 73.2001 262.7 75.0001 260.3 76.0001L267 64.5001H265.2C265.2 63.3001 263.9 61.6001 262.1 61.6001C260.5 61.6001 258.2 62.9001 257 65.1001L254.1 70.1001L253.9 70.3001C251.7 72.8001 249.6 74.8001 248.3 74.8001C247.6 74.8001 247.3 74.3001 248 73.2001L251 68.0001C252 66.2001 251.5 65.1001 250.6 63.9001L248.9 61.9001C248.5 61.4001 248.5 60.7001 249.1 60.2001L247.5 58.5001C245.8 60.0001 245.7 61.7001 246.7 63.1001L247 63.4001C245.7 65.3001 243.9 67.8001 241.9 70.1001L241.7 70.3001C240.3 71.8001 238.7 72.5001 237.2 72.5001L240 67.6001C241.8 64.5001 240.1 61.5001 237.3 61.5001C235 61.5001 233.2 62.4001 231.5 65.4001L230 68.0001L228.8 70.1001L228.6 70.3001C226.1 73.2001 224 75.0001 221.6 76.0001L228.3 64.5001H226.5C226.5 63.3001 225.2 61.6001 223.4 61.6001C221.8 61.6001 219.5 62.9001 218.3 65.1001L214.1 72.4001C212.8 74.6001 213.7 76.7001 216.1 76.7001C216.9 76.7001 217.9 76.3001 219 75.7001L218.2 77.1001C214.2 78.3001 211.6 80.0001 211.6 82.2001C211.6 85.1001 216 85.7001 218.2 82.0001L220.5 78.1001C222.9 77.4001 225.2 75.9001 227.7 73.6001C227.7 77.4001 233 78.2001 236.2 74.1001H236.9C238.7 74.1001 241.5 73.0001 243 71.2001C244.4 69.5001 245.6 68.0001 248 64.8001L248.4 65.3001C248.8 65.8001 248.9 66.4001 248.6 67.0001L245.4 72.5001C244.1 74.7001 245 76.8001 247.4 76.8001C248.9 76.8001 250.6 75.8001 252.2 74.4001C252.2 75.8001 253.1 76.8001 254.8 76.8001C255.6 76.8001 256.6 76.4001 257.7 75.8001L257 77.0001C253 78.2001 250.4 79.9001 250.4 82.1001C250.4 85.0001 254.8 85.6001 257 81.9001L259.3 78.0001C261.7 77.2001 264.1 75.8001 266.6 73.4001C266.7 75.3001 268.2 76.6001 270.7 76.6001C273.1 76.6001 275.6 75.2001 277.6 73.4001C277.5 77.3001 282.9 78.1001 286.1 74.0001H286.8C287.7 74.0001 289 73.7001 290.1 73.1001C289.3 75.2001 290 76.6001 291.7 76.6001C293.3 76.6001 295.2 75.1001 296.6 73.7001C296.3 75.3001 297.3 76.6001 299.2 76.6001C301.7 76.6001 304.5 74.0001 307 71.1001C308.7 69.1001 310.2 67.0001 311.3 65.6001C310.1 68.7001 310.8 74.3001 307.9 74.3001C306.9 74.3001 306.5 73.2001 306.5 73.2001L304.6 74.2001C304.6 74.2001 305.1 76.6001 307.9 76.6001C308.2 76.6001 308.4 76.6001 308.7 76.5001H308.8C311.9 76.1001 314.9 73.7001 317.1 71.1001C317 70.6001 316.5 70.1001 316 70.0001ZM273.1 65.8001C274.8 62.8001 277.9 63.3001 276.1 66.4001L275.7 67.1001C274.3 69.5001 272.3 69.5001 271.2 69.1001L273.1 65.8001ZM215.9 81.4001C215.3 82.5001 214.3 82.4001 214.3 81.5001C214.3 80.7001 215 79.8001 217.3 78.9001L215.9 81.4001ZM217.3 74.7001C216.6 74.7001 216.3 74.2001 217 73.1001L221.2 65.8001C222.8 63.0001 226 63.7001 224.5 66.4001L222.2 70.4001C220.4 73.3001 218.5 74.7001 217.3 74.7001ZM235.7 70.2001H235.6C234.6 70.2001 233.8 71.0001 233.8 72.0001C233.8 72.4001 233.9 72.7001 234.1 73.0001V73.1001C232.7 75.5001 229.3 75.1001 231 71.9001L233.3 68.0001L234.7 65.6001C236.8 62.0001 239.7 63.4001 237.9 66.5001L235.7 70.2001ZM254.5 81.4001C253.9 82.5001 252.9 82.4001 252.9 81.5001C252.9 80.7001 253.6 79.8001 255.9 78.9001L254.5 81.4001ZM255.9 74.7001C255.2 74.7001 254.9 74.2001 255.6 73.1001L259.8 65.8001C261.4 63.0001 264.6 63.7001 263.1 66.4001L260.8 70.4001C259 73.3001 257.1 74.7001 255.9 74.7001ZM285.4 70.2001H285.3C284.3 70.2001 283.5 71.0001 283.5 72.0001C283.5 72.4001 283.6 72.7001 283.8 73.0001V73.1001C282.4 75.5001 279 75.1001 280.7 71.9001L283 68.0001L284.4 65.6001C286.5 62.0001 289.4 63.4001 287.6 66.5001L285.4 70.2001Z" fill="#766458"/>
<path d="M130.3 66.8H101.4V68.8H130.3V66.8Z" fill="#766458"/>
<path d="M357.3 66.8H328.4V68.8H357.3V66.8Z" fill="#766458"/>
<path d="M163.2 0H170.9L169.7 44.9H155.2L153.2 26.4L151.2 44.9H136.6L135.5 0H143.1L143.7 37.2H144.5L149.4 0H157L161.9 37.2H162.7L163.2 0Z" fill="#81B3D3"/>
<path d="M195 37.2V45H174.1V0H195V7.7H181.7V18.5H192.3V26.2H181.7V37.1H195V37.2Z" fill="#81B3D3"/>
<path d="M216.4 37.2V45H198.1V0H205.7V37.2H216.4Z" fill="#81B3D3"/>
<path d="M232.6 28.4L240.3 26.6V40.2C240.3 42.8 238.1 44.9 235.6 44.9H224.1C221.5 44.9 219.4 42.7 219.4 40.2V4.7C219.4 2.1 221.5 0 224.1 0H235.6C238.1 0 240.3 2.1 240.3 4.7V13.8L232.6 15.6V7.6H227.1V37.1H232.6V28.4Z" fill="#81B3D3"/>
<path d="M261.1 0C263.6 0 265.8 2.1 265.8 4.7V40.1C265.8 42.7 263.6 44.8 261.1 44.8H249.6C247 44.8 244.9 42.6 244.9 40.1V4.7C244.9 2.1 247 0 249.6 0H261.1ZM258.1 7.7H252.6V37.2H258.1V7.7Z" fill="#81B3D3"/>
<path d="M290.8 0H298.4V44.9H290.8V22.8L287.7 34.2H280.2L277.2 22.8V44.9H269.6V0H277.2L284 21.7L290.8 0Z" fill="#81B3D3"/>
<path d="M323.1 37.2V45H302.2V0H323.1V7.7H309.8V18.5H320.4V26.2H309.8V37.1H323.1V37.2Z" fill="#81B3D3"/>
<path d="M44.5 157.6C40.9 154.6 36.4 152.6 31.6 152.6C28 152.6 23.2999 154.7 23.2999 158.9C23.2999 163.3 28.6 165 31.9 166L36.9 167.5C47.2999 170.6 55.4 175.8 55.4 187.9C55.4 195.3 53.6 203 47.7 208C41.7999 213 34 215 26.5 215C17.1 215 7.79995 211.8 0.199951 206.5L8.29995 191C13.2 195.3 18.9 198.7 25.6 198.7C30.2 198.7 35 196.4 35 191.2C35 185.7 27.4 183.9 23.2 182.7C11 179.1 2.99995 176 2.99995 161.5C2.99995 146.3 13.7999 136.4 28.7999 136.4C36.2999 136.4 45.6 138.8 52.2 142.6L44.5 157.6Z" fill="white"/>
<path d="M91.7999 154.8V167.3H113.7V183.8H91.7999V196.7H115V213.2H72.3999V138.4H115V154.9L91.7999 154.8Z" fill="white"/>
<path d="M129.4 138.4H157C177.8 138.4 195 154.8 195 175.8C195 196.8 177.7 213.2 157 213.2H129.4V138.4ZM148.9 196.7H153.3C164.9 196.7 174.8 190.3 174.8 175.8C174.8 162.4 166 154.9 153.5 154.9H148.9V196.7Z" fill="white"/>
<path d="M286.9 174.4C286.9 198.6 269.5 215.7 245.5 215.7C221.5 215.7 204.1 198.6 204.1 174.4C204.1 151.8 224 135.9 245.5 135.9C267 135.9 286.9 151.8 286.9 174.4ZM224.3 174.5C224.3 187.4 233.8 196.8 245.4 196.8C257 196.8 266.5 187.4 266.5 174.5C266.5 164.2 257 154.7 245.4 154.7C233.9 154.7 224.3 164.2 224.3 174.5Z" fill="white"/>
<path d="M297.2 138.4H316.7L352.3 184.2H352.5V138.4H372V213.2H352.5L316.9 167.3H316.7V213.2H297.2V138.4Z" fill="white"/>
<path d="M407.3 200.2L402.1 213.2H381.5L410.3 138.4H431.5L459.7 213.2H439L434.1 200.2H407.3ZM420.9 161.5H420.7L412.7 185.3H428.9L420.9 161.5Z" fill="white"/>
<path d="M108.1 287.7C115.8 285.1 116.3 275.5 108.8 275.5C106.7 275.5 104.2 277 102.5 279.9L92.3 297.6C91.8 298.4 91.4 299.1 90.8 299.8C88.2 296.2 88.9 290.8 92.6 288.4L91.1 286.5C83.1 291.6 85.5 306.2 98.8 306.2C110.1 306.2 115.4 292.6 108.1 287.7ZM98.7 303.3C96.4 303.3 94.7 302.8 93.2 302C93.9 301.2 94.5 300.3 95.1 299.3L101.5 288.2L102.5 288.3C111.4 290.2 107.9 303.3 98.7 303.3ZM102.8 286L105.9 280.7C108.7 275.9 112.2 278.7 110.3 282.3C108.8 285.1 106.7 285.9 102.8 286Z" fill="white"/>
<path d="M140.2 300C139.6 302.2 140.8 304.1 143.3 304.1C144.8 304.1 146.7 303.1 148.6 301.6C148.8 303.1 150 304.1 151.9 304.1C153.9 304.1 156.1 302.7 158.3 300.7C157.9 302.7 158.8 304.1 160.7 304.1C162.8 304.1 165.1 302.2 166.9 300.5C166.5 302.5 167.7 304.1 170.1 304.1C173.2 304.1 176.8 300.7 180 297.1C180 297 179.9 297 179.9 296.9C182 294.5 183.8 291.9 185.2 290.1C183.7 294 184.5 301.1 180.9 301.1C179.6 301.1 179.1 299.7 179.1 299.7L176.7 300.9C176.7 300.9 177.4 304 180.9 304C181.3 304 181.6 304 182 303.9H182.1C184.9 303.5 187.6 301.8 190 299.7C190.1 302.2 192 304 195.1 304C199.4 304 203.7 300.6 206.8 297C206.5 296.5 205.9 295.9 205.4 295.7L205.1 296C202.4 299.2 198.9 301.7 196.2 301.7C193.9 301.7 192.5 300.2 194.2 297.2L194.6 296.5C197 297.5 201.6 297 204.5 292.1L205 291.2C207 287.7 205.1 285.1 202 285.1C198.9 285.1 196.5 286.7 194.9 289.5L191.2 295.8H191.1L190.8 296.1C189.4 297.7 187.7 299.2 186.2 300.2C187.4 296.6 187.1 291 189.5 286.2L186.7 284.7C185.1 286.9 181.7 291.8 178.3 295.8L178.4 295.9L178.3 296.1C175.6 299.3 172.9 301.8 171.2 301.8C170.4 301.8 169.9 301.2 170.8 299.7L178.9 285.5H175.1L168.4 297.3C165.5 299.9 163.3 301.4 162.6 301.1C161.7 300.7 162.6 299.3 163.1 298.5L170.5 285.6H166.7L160.7 296C160.6 295.9 160.5 295.9 160.4 295.8L160.1 296.1C157.4 299.3 154.7 301.8 153 301.8C152.2 301.8 151.7 301.2 152.6 299.7L158.7 289H156.5C156.6 287.4 155 285.2 152.5 285.2C150.5 285.2 147.6 286.8 146 289.6L142.2 296.2C142 296 141.8 295.9 141.6 295.8L141.3 296.1C138.6 299.3 135.1 301.8 132.4 301.8C130.1 301.8 128.7 300.3 130.4 297.3L134.3 290.5C136.5 286.7 140.4 287.4 138.1 291.3L137.6 292.2H140.7L141.2 291.3C143.2 287.8 141.3 285.2 138.2 285.2C135.1 285.2 132.7 286.8 131.1 289.6L127.3 296.1C127.2 296 127.1 296 127 295.9L126.7 296.2C124 299.4 120.5 301.9 117.8 301.9C115.5 301.9 114.1 300.4 115.8 297.4L116.2 296.7C118.6 297.7 123.2 297.2 126.1 292.3L126.6 291.4C128.6 287.9 126.7 285.3 123.6 285.3C120.5 285.3 118.1 286.9 116.5 289.7L112.5 296.5C110.1 300.5 112.2 304.3 116.7 304.3C120 304.3 123.4 302.3 126.1 299.7C126 302.3 128 304.3 131.2 304.3C134.4 304.1 137.5 302.3 140.2 300ZM198.2 290.4C200.4 286.6 204.3 287.3 202 291.2L201.5 292.1C199.7 295.2 197.2 295.1 195.8 294.6L198.2 290.4ZM144 299.7L149.3 290.5C151.3 287 155.4 287.9 153.5 291.3L150.5 296.5C148.2 300.1 145.9 301.8 144.4 301.8C143.6 301.7 143.1 301.2 144 299.7ZM119.8 290.4C122 286.6 125.9 287.3 123.6 291.2L123.1 292.1C121.3 295.2 118.8 295.1 117.4 294.6L119.8 290.4Z" fill="white"/>
<path d="M248.4 304.1C252.7 304.1 257 300.7 260.1 297.1C259.8 296.6 259.2 296 258.7 295.8L258.4 296.1C255.7 299.3 252.2 301.8 249.5 301.8C247.2 301.8 245.8 300.3 247.5 297.3L247.9 296.6C250.3 297.6 254.9 297.1 257.8 292.2L258.3 291.3C260.3 287.8 258.4 285.2 255.3 285.2C252.2 285.2 249.8 286.8 248.2 289.6L244.5 295.9C244.5 295.9 244.4 295.9 244.4 295.8L244.1 296.1C241.4 299.3 238.7 301.8 237 301.8C236.2 301.8 235.7 301.2 236.6 299.7L242.1 290.1C243.7 287.2 242.2 285.1 240.1 285.1C238.5 285.1 236.7 286 234.8 288L240.9 277.5H237L226.3 296C226.2 295.9 226 295.8 225.9 295.7L225.6 296C222.9 299.2 220.2 301.7 218.5 301.7C217.7 301.7 217.2 301.1 218.1 299.6L226.2 285.4H229.3L230.4 283.6H227.3L230.9 277.4H227.1L223.5 283.6H220.1L219 285.4H222.5L214.9 298.6C213.3 301.4 214.4 304 217.5 304C219.4 304 221.4 302.8 223.5 301L222 303.6H225.8L231.6 293.6C237.4 286.3 240 287.2 238.4 290L233.5 298.6C231.9 301.4 233 304 236.1 304C238.4 304 241 302.2 243.4 299.8C243.4 302.3 245.3 304.1 248.4 304.1ZM251.5 290.4C253.7 286.6 257.6 287.3 255.3 291.2L254.8 292.1C253 295.2 250.5 295.1 249.1 294.6L251.5 290.4Z" fill="white"/>
<path d="M363.4 295.8L363.1 296.1C360.4 299.3 357.7 301.8 356 301.8C355.2 301.8 354.7 301.2 355.6 299.7L368.4 277.5H364.6L359 287.1C358.3 286 357.1 285.1 355.5 285.1C353.5 285.1 350.6 286.7 349 289.5L345.3 295.9C345.2 295.9 345.1 295.8 345.1 295.8L344.8 296.1C342.1 299.3 339.4 301.8 337.7 301.8C336.9 301.8 336.4 301.2 337.3 299.7L342.8 290.1C344.4 287.2 342.9 285.1 340.8 285.1C339.2 285.1 337.4 286 335.5 287.9L336.9 285.4H333.1L327 295.9C326.9 295.8 326.8 295.7 326.6 295.7L326.3 296C323.6 299.2 320.9 301.7 319.2 301.7C318.4 301.7 317.9 301.1 318.8 299.6L324.9 288.9H323C323.1 287.3 321.5 285.1 319 285.1C317 285.1 314.1 286.7 312.5 289.5L308.8 295.8L308.6 296C305.9 299.2 303.2 301.7 301.5 301.7C300.7 301.7 300.2 301.1 301.1 299.6L304.9 293C306.2 290.7 305.6 289.4 304.4 287.9L302.3 285.3C301.8 284.6 301.8 283.8 302.5 283.1L300.5 280.9C298.3 282.8 298.2 285 299.5 286.7L299.8 287.1C298.1 289.5 295.9 292.7 293.4 295.6C293.5 295.7 293.6 295.8 293.7 295.9C290.6 299.5 287.9 301.8 284.9 303.1L289.7 294.9H286L285.6 295.6C283.6 299.1 281.3 301.7 278.3 301.7C275.7 301.7 275.2 299.1 277.5 295.2L278.6 293.3C279.3 293.4 280 293.5 280.8 293.5C294.3 293.5 300.8 275.4 288.9 275.4C286.8 275.4 284.3 276.9 282.6 279.8L276.7 290C274.5 288.8 273.3 286.7 273.3 284.6C273.3 282.8 274.1 281.1 275.7 279.8L274.5 277.6C271.8 279.5 270.6 282.1 270.6 284.7C270.6 287.7 272.3 290.6 275.4 292.2L274.3 294.2C271.6 298.8 272.1 303.9 277.5 303.9C279.1 303.9 280.5 303.4 281.6 302.7L280.6 304.4C275.5 306 272.3 308 272.3 310.9C272.3 314.5 277.9 315.3 280.6 310.6L283.5 305.6C287.4 304.4 291.3 301.7 295.5 296.8C295.4 296.7 295.4 296.6 295.3 296.4C297 294.4 298.4 292.5 301.3 288.6L301.8 289.2C302.3 289.8 302.5 290.6 302 291.4L298 298.4C296.4 301.2 297.5 303.8 300.6 303.8C302.5 303.8 304.6 302.6 306.6 300.8C306.6 302.5 307.7 303.8 309.9 303.8C311.4 303.8 313.3 302.8 315.2 301.3C315.4 302.8 316.6 303.8 318.5 303.8C320.3 303.8 322.3 302.7 324.2 301L322.8 303.4H326.6L332.4 293.3C338.2 286 340.8 287 339.1 289.8L334.2 298.4C332.6 301.2 333.7 303.8 336.8 303.8C338.8 303.8 341 302.4 343.2 300.5C343 302.4 344.2 303.8 346.5 303.8C348 303.8 349.9 302.8 351.8 301.3C352 302.8 353.2 303.8 355.1 303.8C358.2 303.8 361.8 300.4 365 296.8C364.6 296.6 363.9 296 363.4 295.8ZM285.5 281.6C286.6 279.7 287.9 278.8 288.9 278.8C294.9 278.8 290.7 291.1 280.8 291.1H280L285.5 281.6ZM277.4 310.2C276.6 311.6 275.3 311.4 275.3 310.4C275.3 309.4 276.2 308.3 279.1 307.2L277.4 310.2ZM317.1 296.4C314.8 300 312.5 301.7 311 301.7C310.2 301.7 309.7 301.1 310.6 299.6L315.9 290.4C317.9 286.9 322 287.8 320.1 291.2L317.1 296.4ZM353.8 296.2C351.5 300 349.2 301.7 347.6 301.7C346.8 301.7 346.3 301.1 347.2 299.6L352.5 290.4C354.5 286.9 358.6 287.8 356.7 291.2L353.8 296.2Z" fill="white"/>
<path d="M236.7 331.8L236.4 332.1C233.7 335.3 231 337.8 229.3 337.8C228.5 337.8 228 337.2 228.9 335.7L234.4 326.1C236 323.2 234.5 321.1 232.4 321.1C230.8 321.1 229 322 227.1 323.9L228.5 321.4H224.7L218.6 332C218.4 331.9 218.3 331.8 218.1 331.7L217.8 332C216.1 333.9 214 334.8 212.1 334.8L215.7 328.6C218 324.6 215.9 320.9 212.3 320.9C209.4 320.9 207.1 322.1 204.9 325.9L203 329.1L201.4 331.9C201.3 331.8 201.2 331.8 201.1 331.7L200.8 332C197.7 335.6 195 337.9 192 339.2L202.4 321.4H198.6L191.9 333.1C189 335.8 186.7 337.3 186 337C185.1 336.6 186 335.2 186.5 334.4L193.9 321.5H190.1L184 332C183.9 331.9 183.8 331.9 183.7 331.8L183.4 332.1C180.7 335.3 178 337.8 176.3 337.8C175.5 337.8 175 337.2 175.9 335.7L181.4 326.1C183 323.2 181.5 321.1 179.4 321.1C177.8 321.1 176 322 174.1 323.9L175.5 321.4H171.7L165.6 331.9C165.5 331.8 165.4 331.7 165.2 331.7L164.9 332C162.2 335.2 159.5 337.7 157.8 337.7C157 337.7 156.5 337.1 157.4 335.6L163.5 324.9H161.3C161.4 323.3 159.8 321.1 157.3 321.1C155.3 321.1 152.4 322.7 150.8 325.5L146.9 332.3C146.6 332.1 146.3 331.9 146.1 331.8L145.8 332.1C143.1 335.3 139.7 337.8 136 337.8C133.4 337.8 131.8 335.2 134.1 331.3L135.2 329.4C135.9 329.5 136.6 329.6 137.4 329.6C141.4 329.6 146 327.5 149 322.3C150.1 320.4 150.5 318.7 150.5 317.2C150.5 313.8 148.3 311.5 145.5 311.5C143.4 311.5 140.9 313 139.2 315.9L133.3 326.1C131.1 324.9 129.9 322.8 129.9 320.7C129.9 318.9 130.7 317.2 132.3 315.9L131.1 313.7C128.4 315.6 127.2 318.2 127.2 320.8C127.2 323.8 128.9 326.7 132 328.3L130.9 330.3C128.2 334.9 129.8 340 135.2 340C139.4 340 142.6 338.1 145.2 335.6C144.4 338 145.6 340 148.3 340C149.8 340 151.7 339 153.6 337.5C153.8 339 155 340 156.9 340C158.7 340 160.7 338.9 162.6 337.2L161.2 339.6H165L170.8 329.5C176.6 322.2 179.2 323.2 177.5 326L172.6 334.6C171 337.4 172.1 340 175.2 340C177.2 340 179.5 338.6 181.7 336.6C181.2 338.7 182.2 340 184.1 340C185.9 340 188 338.5 189.7 336.9L187.6 340.5C182.5 342 179.2 344.1 179.2 347C179.2 350.6 184.8 351.4 187.5 346.7L190.4 341.7C193.6 340.7 196.7 338.7 200 335.5C199.5 340.8 206.5 342 210.8 336.6H211.6C213 336.6 214.9 336.1 216.6 335.1L214.1 339.5H217.9L223.7 329.4C229.5 322.1 232.1 323.1 230.4 325.9L225.5 334.5C223.9 337.3 225 339.9 228.1 339.9C231.2 339.9 234.8 336.5 238 332.9C237.9 332.6 237.2 332 236.7 331.8ZM142.3 317.6C143.4 315.7 144.7 314.8 145.7 314.8C147.1 314.8 147.8 315.7 147.8 317.1C147.8 320.6 143.5 327 137.6 327H136.8L142.3 317.6ZM155.7 332.4C153.4 336 151.1 337.7 149.6 337.7C148.8 337.7 148.3 337.1 149.2 335.6L154.5 326.4C156.5 322.9 160.6 323.8 158.7 327.2L155.7 332.4ZM184.5 346.2C183.7 347.6 182.4 347.4 182.4 346.4C182.4 345.4 183.3 344.3 186.2 343.2L184.5 346.2ZM210.1 332H209.9C208.7 332 207.7 333 207.7 334.3C207.7 334.8 207.8 335.2 208.1 335.6V335.7C206.3 338.8 202 338.2 204.2 334.2L207.1 329.2L208.9 326.1C211.6 321.6 215.2 323.4 212.9 327.3L210.1 332Z" fill="white"/>
<path d="M324.6 333.1C324.4 332.5 323.7 331.9 323.2 331.8L322.9 332.1C321.5 333.7 319.8 335.2 318.3 336.2C319.5 332.6 319.2 327 321.6 322.2L318.8 320.7C317.2 322.9 313.8 327.8 310.4 331.8L310.1 332.1C307.4 335.3 304.7 337.8 303 337.8C302.2 337.8 301.4 337 301.4 335.2V333.6C304.1 333.9 306.9 332.2 308.7 329.1L309.7 327.3C313.2 321.2 307.5 319.2 303.6 322.8L309 313.4H305.2L294.4 332.2C294.2 332 293.9 331.8 293.7 331.7L293.4 332C290.7 335.2 287.2 337.7 284.5 337.7C282.2 337.7 280.8 336.2 282.5 333.2L286.4 326.4C288.6 322.6 292.5 323.3 290.2 327.2L289.7 328.1H292.8L293.3 327.2C295.3 323.7 293.4 321.1 290.3 321.1C287.2 321.1 284.8 322.7 283.2 325.5L279.5 331.9C279.4 331.9 279.3 331.8 279.3 331.8L279 332.1C276.3 335.3 273.6 337.8 271.9 337.8C271.1 337.8 270.6 337.2 271.5 335.7L279.6 321.5H275.8L269.1 333.3C266.2 335.9 264 337.4 263.3 337.1C262.4 336.7 263.3 335.3 263.8 334.5L271.2 321.6H267.4L260 334.3C259.2 335 258.3 335.7 257.6 336.3C258.8 332.7 258.5 327.1 260.9 322.3L258.1 320.8C256.5 323 247.8 334.6 244.3 338.6C244.6 339.1 245.2 339.5 245.7 339.9C247.9 337.4 255.1 328.1 256.4 326.3C254.9 330.2 255.7 337.3 252.1 337.3C250.8 337.3 250.3 335.9 250.3 335.9L247.9 337.1C247.9 337.1 248.6 340.2 252.1 340.2C252.5 340.2 252.8 340.2 253.2 340.1H253.3C255.2 339.8 257.1 339 258.9 337.7C258.9 339.2 259.8 340.2 261.4 340.2C263.5 340.2 265.8 338.3 267.6 336.6C267.2 338.6 268.4 340.2 270.8 340.2C273.2 340.2 275.8 338.3 278.3 335.8C278.3 338.3 280.3 340.2 283.4 340.2C286.5 340.2 289.5 338.5 292.2 336.2L290.1 339.9H293.9L298.2 332.4V335.4C298.2 338.6 298.8 340.3 301.9 340.3C305 340.3 308.6 336.9 311.8 333.3C314 330.8 315.8 328.2 317.2 326.4C315.7 330.3 316.5 337.4 312.9 337.4C311.6 337.4 311.1 336 311.1 336L308.7 337.2C308.7 337.2 309.4 340.3 312.9 340.3C313.3 340.3 313.6 340.3 314 340.2H314.1C317.9 339.5 321.8 336.4 324.6 333.1ZM299.4 330.1L300.5 328.2C304.9 322.1 307.9 323.8 306.5 326.1L304.7 329.2C303.6 331.2 300.3 332.6 299.4 330.1Z" fill="white"/>
<path d="M324.5 335.7C323.3 335.7 322.3 336.7 322.3 337.9C322.3 339.1 323.2 340.1 324.5 340.1C325.7 340.1 326.7 339.2 326.7 337.9C326.7 336.7 325.7 335.7 324.5 335.7Z" fill="white"/>
<path d="M324.7 334.2H328.5L340.4 313.5H336.6L324.7 334.2Z" fill="white"/>
<path d="M80.4 277.6C80.4 277.9 80.3 278.2 80.2 278.5C80.1 278.8 79.9 279.1 79.7 279.3C79.5 279.5 79.2 279.7 78.9 279.9C78.6 280 78.2 280.1 77.8 280.1C77.3 280.1 76.9 280 76.5 279.8C76.1 279.6 75.7 279.4 75.4 279.1C75.1 278.8 75 278.5 74.8 278.1C74.7 277.7 74.6 277.3 74.6 276.8C74.6 275.9 74.8 275.2 75.1 274.4C75.4 273.7 75.8 273 76.4 272.5C76.6 272.3 76.9 272 77.2 271.8C77.5 271.6 77.8 271.4 78.1 271.3C78.4 271.2 78.6 271 78.8 270.9C79 270.8 79.1 270.8 79.2 270.7L80.6 272.7C80.4 272.8 80.1 272.9 79.8 273.1C79.5 273.2 79.2 273.4 78.9 273.6C78.6 273.8 78.4 274.1 78.2 274.4C78 274.7 77.9 275 77.9 275.4C78.6 275.4 79.1 275.6 79.6 276C80.2 276.3 80.4 276.9 80.4 277.6ZM88.3 277.6C88.3 277.9 88.2 278.2 88.1 278.5C88 278.8 87.8 279.1 87.6 279.3C87.4 279.5 87.1 279.7 86.8 279.9C86.5 280 86.1 280.1 85.7 280.1C85.2 280.1 84.8 280 84.4 279.8C84 279.6 83.6 279.4 83.3 279.1C83.1 278.8 82.9 278.5 82.7 278.1C82.6 277.7 82.5 277.3 82.5 276.8C82.5 275.9 82.7 275.2 83 274.4C83.3 273.7 83.7 273 84.3 272.5C84.5 272.3 84.8 272 85.1 271.8C85.4 271.6 85.7 271.4 86 271.3C86.3 271.2 86.5 271 86.7 270.9C86.9 270.8 87 270.8 87.1 270.7L88.5 272.7C88.3 272.8 88 272.9 87.7 273.1C87.4 273.2 87.1 273.4 86.8 273.6C86.5 273.8 86.3 274.1 86.1 274.4C85.9 274.7 85.8 275 85.8 275.4C86.5 275.4 87 275.6 87.5 276C88 276.3 88.3 276.9 88.3 277.6Z" fill="white"/>
<path d="M353.4 336.5C353.4 336.2 353.5 335.9 353.6 335.6C353.7 335.3 353.9 335 354.1 334.8C354.3 334.6 354.6 334.4 354.9 334.2C355.2 334.1 355.6 334 356 334C356.5 334 356.9 334.1 357.3 334.3C357.7 334.5 358.1 334.7 358.4 335C358.7 335.3 358.8 335.6 359 336C359.1 336.4 359.2 336.8 359.2 337.3C359.2 338.2 359 338.9 358.7 339.7C358.4 340.4 358 341.1 357.4 341.6C357.2 341.8 356.9 342.1 356.6 342.3C356.3 342.5 356 342.7 355.7 342.8C355.4 342.9 355.2 343.1 355 343.2C354.8 343.3 354.7 343.3 354.6 343.4L353.2 341.4C353.4 341.3 353.7 341.2 354 341C354.3 340.9 354.6 340.7 354.9 340.5C355.2 340.3 355.4 340 355.6 339.7C355.8 339.4 355.9 339.1 355.9 338.7C355.2 338.7 354.7 338.5 354.2 338.1C353.7 337.8 353.4 337.2 353.4 336.5ZM345.6 336.5C345.6 336.2 345.7 335.9 345.8 335.6C345.9 335.3 346.1 335 346.3 334.8C346.5 334.6 346.8 334.4 347.1 334.2C347.4 334.1 347.8 334 348.2 334C348.7 334 349.1 334.1 349.5 334.3C349.9 334.5 350.3 334.7 350.6 335C350.8 335.3 351 335.6 351.2 336C351.3 336.4 351.4 336.8 351.4 337.3C351.4 338.2 351.2 338.9 350.9 339.7C350.6 340.4 350.2 341.1 349.6 341.6C349.4 341.8 349.1 342.1 348.8 342.3C348.5 342.5 348.2 342.7 347.9 342.8C347.6 342.9 347.4 343.1 347.2 343.2C347 343.3 346.9 343.3 346.8 343.4L345.4 341.4C345.7 341.3 345.9 341.2 346.2 341C346.5 340.9 346.8 340.7 347.1 340.5C347.4 340.3 347.6 340 347.8 339.7C348 339.4 348.1 339.1 348.1 338.7C347.4 338.7 346.9 338.5 346.4 338.1C345.8 337.8 345.6 337.2 345.6 336.5Z" fill="white"/>
</symbol><symbol id="main-photo-text" viewBox="0 0 282 214">
<path d="M101.385 42.8044L101.262 42.9267C100.403 43.844 99.4211 44.272 98.5006 44.272L100.219 41.2757C101.324 39.3801 100.28 37.5456 98.5619 37.5456C97.1504 37.5456 96.0457 38.096 95.0024 39.9304L94.0819 41.5203L93.3454 42.8044L93.2227 42.9267C91.8725 44.4555 90.5837 45.6785 89.7859 45.6785C89.3563 45.6785 89.1722 45.3727 89.6018 44.7001L93.5295 37.8514H95.0024L95.5548 36.9953H94.0205L95.7389 33.999H93.8977L92.1793 36.9953H90.5223L89.97 37.8514H91.627L87.9447 44.2109C87.1469 45.5562 87.6993 46.8403 89.1722 46.8403C90.2155 46.8403 91.4429 46.0454 92.5476 44.9447C92.5476 47.2683 95.8002 47.7575 97.7641 45.2504H98.1937C99.2984 45.2504 101.017 44.5778 101.937 43.4771C101.937 43.1713 101.63 42.9267 101.385 42.8044ZM97.4573 42.9267H97.3959C96.7822 42.9267 96.2912 43.4159 96.2912 44.0274C96.2912 44.272 96.3526 44.4555 96.4753 44.6389V44.7001C95.6161 46.1677 93.5295 45.9231 94.5728 43.9663L95.9844 41.5815L96.8436 40.1139C98.1323 37.9125 99.9121 38.7686 98.8074 40.6642L97.4573 42.9267Z" fill="#766458"/>
<path d="M126.854 42.8042L126.731 42.9265C125.381 44.4552 123.724 45.6782 122.435 45.6782C121.331 45.6782 120.656 44.9444 121.453 43.4768L121.637 43.1711C122.803 43.6603 125.074 43.4157 126.424 41.0309L126.67 40.6028C127.652 38.8907 126.731 37.6677 125.197 37.6677C123.724 37.6677 122.558 38.4626 121.76 39.8079L119.98 42.8654L119.858 42.9877C118.508 44.5164 117.219 45.7394 116.421 45.7394C115.991 45.7394 115.807 45.4336 116.237 44.761L118.876 40.1136C119.674 38.7072 118.937 37.7288 117.894 37.7288C117.096 37.7288 116.237 38.1569 115.316 39.1353L118.262 34.0599H116.421L111.327 42.8042L111.204 42.9265C109.854 44.4552 108.565 45.6782 107.768 45.6782C107.338 45.6782 107.154 45.3725 107.583 44.6998L111.511 37.8511H112.984L113.536 36.995H112.002L113.721 33.9987H111.879L110.161 36.995H108.504L107.952 37.8511H109.609L105.926 44.2106C105.129 45.5559 105.681 46.8401 107.154 46.8401C107.89 46.8401 108.688 46.4732 109.486 45.8617L108.995 46.6566H110.836L113.598 41.8258C116.421 38.2792 117.648 38.7684 116.912 40.1136L114.518 44.2718C113.721 45.6171 114.273 46.9012 115.746 46.9012C116.851 46.9012 118.078 46.0451 119.183 44.9444C119.244 46.1063 120.226 46.9012 121.699 46.9012C123.785 46.9012 125.872 45.3113 127.345 43.538C127.406 43.1711 127.099 42.9265 126.854 42.8042ZM123.356 40.2359C124.399 38.4015 126.302 38.7072 125.197 40.6028L124.951 41.0309C124.092 42.4985 122.865 42.4985 122.19 42.2539L123.356 40.2359Z" fill="#766458"/>
<path d="M193.81 42.8044L193.687 42.9267C193.012 43.7217 192.214 44.3943 191.478 44.9446C192.091 43.1713 191.907 40.5419 193.073 38.1571L191.723 37.4233C190.987 38.4628 189.33 40.8476 187.611 42.8044L187.488 42.9267C186.138 44.4554 184.849 45.6784 184.052 45.6784C183.622 45.6784 183.438 45.3727 183.868 44.7L187.795 37.8513H185.954L182.701 43.5382C181.29 44.8223 180.247 45.495 179.878 45.3727C179.449 45.1892 179.878 44.5166 180.124 44.0886L183.683 37.8513H181.842L178.958 42.8044L178.835 42.9267C177.976 43.844 176.994 44.272 176.073 44.272L177.792 41.2757C178.896 39.3801 177.853 37.5456 176.135 37.5456C174.723 37.5456 173.619 38.0959 172.575 39.9304L171.655 41.5203L170.918 42.8044L170.796 42.9267C169.445 44.4554 167.788 45.6784 166.5 45.6784C165.395 45.6784 164.72 44.9446 165.518 43.4771L165.702 43.1713C166.868 43.6605 169.138 43.4159 170.489 41.0311L170.734 40.6031C171.716 38.8909 170.796 37.6679 169.261 37.6679C167.788 37.6679 166.622 38.4628 165.824 39.8081L164.045 42.8656L163.922 42.9879C162.388 44.7612 161.099 45.8619 159.626 46.4734L163.738 39.4412H162.633C162.633 38.7074 161.835 37.6679 160.731 37.6679C159.749 37.6679 158.337 38.4628 157.601 39.8081L155.821 42.8656L155.698 42.9879C154.348 44.5166 153.059 45.7396 152.261 45.7396C151.832 45.7396 151.648 45.4338 152.077 44.7612L153.918 41.5814C154.532 40.4808 154.225 39.8081 153.673 39.0743L152.63 37.8513C152.384 37.5456 152.384 37.1175 152.752 36.8118L151.77 35.7723C150.727 36.6895 150.666 37.729 151.28 38.5851L151.464 38.7686C150.666 39.9304 149.561 41.4591 148.334 42.8656L148.211 42.9879C147.352 43.9051 146.37 44.3332 145.449 44.3332L147.168 41.3368C148.272 39.4412 147.229 37.6067 145.511 37.6067C144.099 37.6067 142.994 38.1571 141.951 39.9916L141.031 41.5814L140.294 42.8656L140.171 42.9879C138.637 44.7612 137.348 45.8619 135.875 46.4734L139.987 39.4412H138.883C138.883 38.7074 138.085 37.6679 136.98 37.6679C135.998 37.6679 134.587 38.4628 133.85 39.8081L131.273 44.272C130.475 45.6173 131.027 46.9014 132.5 46.9014C132.991 46.9014 133.605 46.6568 134.28 46.2899L133.789 47.146C131.334 47.8798 129.738 48.9193 129.738 50.2646C129.738 52.038 132.439 52.4048 133.789 50.1423L135.2 47.7575C136.673 47.3295 138.085 46.4122 139.619 45.0058C139.619 47.3295 142.872 47.8187 144.836 45.3115H145.265C146.37 45.3115 148.088 44.6389 149.009 43.5382C149.868 42.4987 150.604 41.5814 152.077 39.6247L152.323 39.9304C152.568 40.2362 152.63 40.6031 152.446 40.9699L150.482 44.3332C149.684 45.6784 150.236 46.9626 151.709 46.9626C152.63 46.9626 153.673 46.3511 154.655 45.495C154.655 46.3511 155.207 46.9626 156.251 46.9626C156.742 46.9626 157.355 46.718 158.03 46.3511L157.601 47.0849C155.146 47.8187 153.55 48.8582 153.55 50.2035C153.55 51.9768 156.251 52.3437 157.601 50.0812L159.012 47.6964C160.485 47.2072 161.958 46.3511 163.492 44.8835C163.554 46.0453 164.474 46.8403 166.009 46.8403C167.481 46.8403 169.016 45.9842 170.243 44.8835C170.182 47.2683 173.496 47.7575 175.46 45.2504H175.889C176.442 45.2504 177.239 45.0669 177.915 44.7C177.424 45.9842 177.853 46.8403 178.896 46.8403C179.878 46.8403 181.044 45.923 181.904 45.0669C181.72 46.0453 182.333 46.8403 183.499 46.8403C185.034 46.8403 186.752 45.2504 188.286 43.4771C189.33 42.2541 190.25 40.9699 190.925 40.1139C190.189 42.0095 190.618 45.4338 188.839 45.4338C188.225 45.4338 187.979 44.7612 187.979 44.7612L186.813 45.3727C186.813 45.3727 187.12 46.8403 188.839 46.8403C189.023 46.8403 189.145 46.8403 189.33 46.7791H189.391C191.293 46.5345 193.135 45.0669 194.485 43.4771C194.423 43.1713 194.117 42.8656 193.81 42.8044ZM167.481 40.2362C168.525 38.4017 170.427 38.7074 169.323 40.6031L169.077 41.0311C168.218 42.4987 166.991 42.4987 166.315 42.2541L167.481 40.2362ZM132.377 49.7754C132.009 50.4481 131.395 50.3869 131.395 49.8366C131.395 49.3474 131.825 48.797 133.236 48.2467L132.377 49.7754ZM133.236 45.6784C132.807 45.6784 132.623 45.3727 133.052 44.7L135.63 40.2362C136.612 38.524 138.576 38.952 137.655 40.6031L136.244 43.049C135.139 44.8223 133.973 45.6784 133.236 45.6784ZM144.529 42.9267H144.467C143.854 42.9267 143.363 43.4159 143.363 44.0274C143.363 44.272 143.424 44.4555 143.547 44.6389V44.7C142.688 46.1676 140.601 45.923 141.644 43.9663L143.056 41.5814L143.915 40.1139C145.204 37.9125 146.984 38.7686 145.879 40.6642L144.529 42.9267ZM156.066 49.7754C155.698 50.4481 155.085 50.3869 155.085 49.8366C155.085 49.3474 155.514 48.797 156.926 48.2467L156.066 49.7754ZM156.926 45.6784C156.496 45.6784 156.312 45.3727 156.742 44.7L159.319 40.2362C160.301 38.524 162.265 38.952 161.344 40.6031L159.933 43.049C158.828 44.8223 157.662 45.6784 156.926 45.6784ZM175.03 42.9267H174.969C174.355 42.9267 173.864 43.4159 173.864 44.0274C173.864 44.272 173.925 44.4555 174.048 44.6389V44.7C173.189 46.1676 171.102 45.923 172.146 43.9663L173.557 41.5814L174.416 40.1139C175.705 37.9125 177.485 38.7686 176.38 40.6642L175.03 42.9267Z" fill="#766458"/>
<path d="M79.8437 40.8469H62.1074V42.0699H79.8437V40.8469Z" fill="#766458"/>
<path d="M219.156 40.8469H201.42V42.0699H219.156V40.8469Z" fill="#766458"/>
<path d="M100.035 0H104.76L104.024 27.456H95.1252L93.8978 16.1434L92.6704 27.456H83.7102L83.0351 0H87.6993L88.0675 22.7475H88.5585L91.5657 0H96.2299L99.2371 22.7475H99.728L100.035 0Z" fill="#81B3D3"/>
<path d="M119.551 22.7475V27.5171H106.724V0H119.551V4.70849H111.388V11.3126H117.894V16.0211H111.388V22.6864H119.551V22.7475Z" fill="#81B3D3"/>
<path d="M132.684 22.7475V27.5171H121.453V0H126.118V22.7475H132.684Z" fill="#81B3D3"/>
<path d="M142.626 17.3664L147.352 16.2657V24.582C147.352 26.1719 146.002 27.456 144.467 27.456H137.41C135.814 27.456 134.525 26.1107 134.525 24.582V2.87401C134.525 1.28413 135.814 0 137.41 0H144.467C146.002 0 147.352 1.28413 147.352 2.87401V8.43859L142.626 9.53928V4.64734H139.251V22.6864H142.626V17.3664Z" fill="#81B3D3"/>
<path d="M160.117 0C161.651 0 163.001 1.28413 163.001 2.87401V24.5208C163.001 26.1107 161.651 27.3948 160.117 27.3948H153.059C151.464 27.3948 150.175 26.0496 150.175 24.5208V2.87401C150.175 1.28413 151.464 0 153.059 0H160.117ZM158.276 4.70849H154.901V22.7475H158.276V4.70849Z" fill="#81B3D3"/>
<path d="M178.344 0H183.009V27.456H178.344V13.942L176.442 20.913H171.839L169.998 13.942V27.456H165.334V0H169.998L174.171 13.2694L178.344 0Z" fill="#81B3D3"/>
<path d="M198.167 22.7475V27.5171H185.341V0H198.167V4.70849H190.005V11.3126H196.51V16.0211H190.005V22.6864H198.167V22.7475Z" fill="#81B3D3"/>
<path d="M27.1874 96.3723C24.978 94.5378 22.2163 93.3148 19.2705 93.3148C17.0612 93.3148 14.1767 94.5989 14.1767 97.1672C14.1767 99.8578 17.4294 100.897 19.4546 101.509L22.5232 102.426C28.9058 104.322 33.8768 107.501 33.8768 114.9C33.8768 119.425 32.7721 124.134 29.1513 127.191C25.5304 130.249 20.7434 131.472 16.1406 131.472C10.3717 131.472 4.6642 129.515 0 126.274L4.97106 116.796C7.97824 119.426 11.4764 121.505 15.5882 121.505C18.4113 121.505 21.3571 120.098 21.3571 116.918C21.3571 113.555 16.6929 112.454 14.1153 111.721C6.62807 109.519 1.71839 107.624 1.71839 98.7571C1.71839 89.4624 8.34646 83.4086 17.5521 83.4086C22.155 83.4086 27.8625 84.8762 31.913 87.1999L27.1874 96.3723Z" fill="white"/>
<path d="M56.2158 94.6602V102.304H69.6561V112.393H56.2158V120.282H70.4539V130.371H44.3098V84.6317H70.4539V94.7213L56.2158 94.6602Z" fill="white"/>
<path d="M79.2914 84.6317H96.2298C108.995 84.6317 119.551 94.6602 119.551 107.502C119.551 120.343 108.934 130.371 96.2298 130.371H79.2914V84.6317ZM91.2587 120.282H93.9591C101.078 120.282 107.154 116.368 107.154 107.502C107.154 99.3075 101.753 94.7213 94.0818 94.7213H91.2587V120.282Z" fill="white"/>
<path d="M175.951 106.645C175.951 121.443 165.272 131.9 150.543 131.9C135.814 131.9 125.136 121.443 125.136 106.645C125.136 92.8255 137.348 83.1028 150.543 83.1028C163.738 83.1028 175.951 92.8255 175.951 106.645ZM137.533 106.706C137.533 114.595 143.363 120.343 150.482 120.343C157.601 120.343 163.431 114.595 163.431 106.706C163.431 100.408 157.601 94.5989 150.482 94.5989C143.424 94.5989 137.533 100.408 137.533 106.706Z" fill="white"/>
<path d="M182.272 84.6317H194.239L216.087 112.638H216.21V84.6317H228.178V130.371H216.21L194.362 102.304H194.239V130.371H182.272V84.6317Z" fill="white"/>
<path d="M249.842 122.422L246.65 130.371H234.008L251.683 84.6317H264.693L282 130.371H269.296L266.289 122.422H249.842ZM258.188 98.7572H258.065L253.156 113.311H263.098L258.188 98.7572Z" fill="white"/>
<path d="M66.2196 175.926C70.9451 174.336 71.252 168.466 66.6492 168.466C65.3604 168.466 63.8261 169.383 62.7828 171.156L56.5229 181.98C56.2161 182.469 55.9706 182.897 55.6024 183.325C54.0067 181.124 54.4363 177.821 56.707 176.354L55.7865 175.192C50.8768 178.311 52.3497 187.238 60.5121 187.238C67.447 187.238 70.6996 178.922 66.2196 175.926ZM60.4507 185.465C59.0391 185.465 57.9958 185.159 57.0753 184.67C57.5049 184.181 57.8731 183.631 58.2413 183.019L62.1691 176.232L62.7828 176.293C68.2448 177.455 66.0968 185.465 60.4507 185.465ZM62.9669 174.886L64.8694 171.645C66.5878 168.71 68.7358 170.422 67.5697 172.624C66.6492 174.336 65.3604 174.825 62.9669 174.886Z" fill="white"/>
<path d="M85.9196 183.448C85.5514 184.794 86.2878 185.955 87.8221 185.955C88.7427 185.955 89.9087 185.344 91.0748 184.427C91.1975 185.344 91.9339 185.955 93.1 185.955C94.3274 185.955 95.6776 185.099 97.0278 183.876C96.7823 185.099 97.3346 185.955 98.5007 185.955C99.7894 185.955 101.201 184.794 102.306 183.754C102.06 184.977 102.797 185.955 104.27 185.955C106.172 185.955 108.381 183.876 110.345 181.675C110.345 181.614 110.284 181.614 110.284 181.553C111.573 180.085 112.677 178.495 113.537 177.394C112.616 179.779 113.107 184.121 110.898 184.121C110.1 184.121 109.793 183.265 109.793 183.265L108.32 183.999C108.32 183.999 108.75 185.894 110.898 185.894C111.143 185.894 111.327 185.894 111.573 185.833H111.634C113.352 185.588 115.009 184.549 116.482 183.265C116.544 184.794 117.71 185.894 119.612 185.894C122.251 185.894 124.89 183.815 126.793 181.614C126.609 181.308 126.24 180.941 125.934 180.819L125.749 181.002C124.092 182.959 121.944 184.488 120.287 184.488C118.876 184.488 118.017 183.571 119.06 181.736L119.305 181.308C120.778 181.919 123.601 181.614 125.381 178.617L125.688 178.067C126.915 175.927 125.749 174.337 123.847 174.337C121.944 174.337 120.471 175.315 119.49 177.028L117.219 180.88H117.157L116.973 181.063C116.114 182.042 115.071 182.959 114.15 183.571C114.887 181.369 114.703 177.945 116.176 175.01L114.457 174.092C113.475 175.438 111.389 178.434 109.302 180.88L109.363 180.941L109.302 181.063C107.645 183.02 105.988 184.549 104.945 184.549C104.454 184.549 104.147 184.182 104.699 183.265L109.67 174.582H107.338L103.226 181.797C101.446 183.387 100.096 184.304 99.6667 184.121C99.1144 183.876 99.6667 183.02 99.9736 182.531L104.515 174.643H102.183L98.5007 181.002C98.4393 180.941 98.3779 180.941 98.3165 180.88L98.1324 181.063C96.4754 183.02 94.8184 184.549 93.7751 184.549C93.2841 184.549 92.9773 184.182 93.5296 183.265L97.2732 176.722H95.9231C95.9844 175.743 95.0025 174.398 93.4682 174.398C92.2408 174.398 90.461 175.377 89.4791 177.089L87.147 181.125C87.0243 181.002 86.9015 180.941 86.7788 180.88L86.5947 181.063C84.9377 183.02 82.7897 184.549 81.1326 184.549C79.7211 184.549 78.8619 183.632 79.9052 181.797L82.2987 177.639C83.6489 175.315 86.0423 175.743 84.6308 178.128L84.3239 178.679H86.2264L86.5333 178.128C87.7607 175.988 86.5947 174.398 84.6922 174.398C82.7897 174.398 81.3168 175.377 80.3348 177.089L78.0027 181.063C77.9414 181.002 77.88 181.002 77.8186 180.941L77.6345 181.125C75.9775 183.081 73.8295 184.61 72.1725 184.61C70.7609 184.61 69.9017 183.693 70.9451 181.858L71.1905 181.43C72.6634 182.042 75.4865 181.736 77.2663 178.74L77.5731 178.189C78.8005 176.049 77.6345 174.459 75.732 174.459C73.8295 174.459 72.3566 175.438 71.3746 177.15L68.9198 181.308C67.4469 183.754 68.7357 186.078 71.4974 186.078C73.5226 186.078 75.6092 184.855 77.2663 183.265C77.2049 184.855 78.4323 186.078 80.3962 186.078C82.3601 185.955 84.2626 184.855 85.9196 183.448ZM121.515 177.578C122.865 175.254 125.258 175.682 123.847 178.067L123.54 178.617C122.435 180.513 120.901 180.452 120.042 180.146L121.515 177.578ZM88.2517 183.265L91.5044 177.639C92.7318 175.499 95.248 176.049 94.0819 178.128L92.2408 181.308C90.8293 183.509 89.4177 184.549 88.4972 184.549C88.0062 184.488 87.6993 184.182 88.2517 183.265ZM73.3999 177.578C74.7501 175.254 77.1435 175.682 75.732 178.067L75.4251 178.617C74.3205 180.513 72.7862 180.452 71.927 180.146L73.3999 177.578Z" fill="white"/>
<path d="M152.323 185.954C154.962 185.954 157.601 183.875 159.503 181.674C159.319 181.368 158.951 181.001 158.644 180.879L158.46 181.062C156.803 183.019 154.655 184.548 152.998 184.548C151.587 184.548 150.727 183.63 151.771 181.796L152.016 181.368C153.489 181.979 156.312 181.674 158.092 178.677L158.399 178.127C159.626 175.987 158.46 174.397 156.558 174.397C154.655 174.397 153.182 175.375 152.2 177.087L149.93 180.94C149.93 180.94 149.868 180.94 149.868 180.879L149.684 181.062C148.027 183.019 146.37 184.548 145.327 184.548C144.836 184.548 144.529 184.181 145.081 183.263L148.457 177.393C149.439 175.62 148.518 174.336 147.229 174.336C146.247 174.336 145.143 174.886 143.977 176.109L147.72 169.688H145.327L138.76 181.001C138.699 180.94 138.576 180.879 138.515 180.817L138.33 181.001C136.673 182.958 135.016 184.486 133.973 184.486C133.482 184.486 133.175 184.12 133.728 183.202L138.699 174.519H140.601L141.276 173.418H139.374L141.583 169.627H139.251L137.042 173.418H134.955L134.28 174.519H136.428L131.764 182.591C130.782 184.303 131.457 185.893 133.359 185.893C134.525 185.893 135.753 185.159 137.042 184.058L136.121 185.648H138.453L142.013 179.533C145.572 175.069 147.168 175.62 146.186 177.332L143.179 182.591C142.197 184.303 142.872 185.893 144.774 185.893C146.186 185.893 147.782 184.792 149.254 183.325C149.254 184.853 150.421 185.954 152.323 185.954ZM154.226 177.577C155.576 175.253 157.969 175.681 156.558 178.066L156.251 178.616C155.146 180.512 153.612 180.451 152.753 180.145L154.226 177.577Z" fill="white"/>
<path d="M222.9 180.879L222.716 181.063C221.059 183.019 219.402 184.548 218.358 184.548C217.867 184.548 217.561 184.181 218.113 183.264L225.968 169.689H223.636L220.199 175.559C219.77 174.886 219.033 174.336 218.051 174.336C216.824 174.336 215.044 175.315 214.062 177.027L211.792 180.94C211.73 180.94 211.669 180.879 211.669 180.879L211.485 181.063C209.828 183.019 208.171 184.548 207.127 184.548C206.636 184.548 206.33 184.181 206.882 183.264L210.257 177.394C211.239 175.62 210.319 174.336 209.03 174.336C208.048 174.336 206.943 174.886 205.777 176.048L206.636 174.52H204.304L200.561 180.94C200.499 180.879 200.438 180.818 200.315 180.818L200.131 181.001C198.474 182.958 196.817 184.487 195.774 184.487C195.283 184.487 194.976 184.12 195.528 183.203L199.272 176.66H198.106C198.167 175.681 197.185 174.336 195.651 174.336C194.424 174.336 192.644 175.315 191.662 177.027L189.391 180.879L189.268 181.001C187.611 182.958 185.954 184.487 184.911 184.487C184.42 184.487 184.113 184.12 184.666 183.203L186.998 179.167C187.796 177.76 187.427 176.966 186.691 176.048L185.402 174.458C185.095 174.03 185.095 173.541 185.525 173.113L184.297 171.768C182.947 172.93 182.886 174.275 183.684 175.315L183.868 175.559C182.824 177.027 181.474 178.983 179.94 180.757C180.001 180.818 180.063 180.879 180.124 180.94C178.222 183.142 176.565 184.548 174.724 185.343L177.669 180.329H175.399L175.153 180.757C173.926 182.897 172.514 184.487 170.673 184.487C169.077 184.487 168.771 182.897 170.182 180.512L170.857 179.35C171.287 179.412 171.716 179.473 172.207 179.473C180.492 179.473 184.482 168.405 177.178 168.405C175.89 168.405 174.355 169.322 173.312 171.095L169.691 177.332C168.341 176.599 167.604 175.315 167.604 174.03C167.604 172.93 168.095 171.89 169.077 171.095L168.341 169.75C166.684 170.912 165.947 172.502 165.947 174.092C165.947 175.926 166.991 177.699 168.893 178.678L168.218 179.901C166.561 182.714 166.868 185.832 170.182 185.832C171.164 185.832 172.023 185.526 172.698 185.098L172.085 186.138C168.955 187.116 166.991 188.339 166.991 190.113C166.991 192.314 170.428 192.803 172.085 189.929L173.864 186.872C176.258 186.138 178.651 184.487 181.229 181.491C181.167 181.429 181.167 181.368 181.106 181.246C182.149 180.023 183.009 178.861 184.788 176.476L185.095 176.843C185.402 177.21 185.525 177.699 185.218 178.189L182.763 182.469C181.781 184.181 182.456 185.771 184.359 185.771C185.525 185.771 186.814 185.037 188.041 183.937C188.041 184.976 188.716 185.771 190.066 185.771C190.987 185.771 192.153 185.16 193.319 184.242C193.442 185.16 194.178 185.771 195.344 185.771C196.449 185.771 197.676 185.098 198.842 184.059L197.983 185.526H200.315L203.875 179.35C207.434 174.886 209.03 175.498 207.987 177.21L204.979 182.469C203.998 184.181 204.673 185.771 206.575 185.771C207.802 185.771 209.153 184.915 210.503 183.753C210.38 184.915 211.117 185.771 212.528 185.771C213.449 185.771 214.615 185.16 215.781 184.242C215.903 185.16 216.64 185.771 217.806 185.771C219.708 185.771 221.918 183.692 223.882 181.491C223.636 181.368 223.207 181.001 222.9 180.879ZM175.092 172.196C175.767 171.034 176.565 170.484 177.178 170.484C180.861 170.484 178.283 178.005 172.207 178.005H171.716L175.092 172.196ZM170.121 189.685C169.63 190.541 168.832 190.418 168.832 189.807C168.832 189.195 169.384 188.523 171.164 187.85L170.121 189.685ZM194.485 181.246C193.073 183.447 191.662 184.487 190.741 184.487C190.25 184.487 189.944 184.12 190.496 183.203L193.749 177.577C194.976 175.437 197.492 175.987 196.326 178.066L194.485 181.246ZM217.008 181.124C215.597 183.447 214.185 184.487 213.203 184.487C212.712 184.487 212.405 184.12 212.958 183.203L216.21 177.577C217.438 175.437 219.954 175.987 218.788 178.066L217.008 181.124Z" fill="white"/>
<path d="M145.143 202.893L144.959 203.076C143.302 205.033 141.645 206.561 140.601 206.561C140.11 206.561 139.803 206.195 140.356 205.277L143.731 199.407C144.713 197.634 143.793 196.35 142.504 196.35C141.522 196.35 140.417 196.9 139.251 198.062L140.11 196.533H137.778L134.035 203.015C133.912 202.954 133.85 202.893 133.728 202.831L133.544 203.015C132.5 204.177 131.211 204.727 130.045 204.727L132.255 200.936C133.666 198.49 132.378 196.227 130.168 196.227C128.388 196.227 126.977 196.961 125.627 199.285L124.461 201.242L123.479 202.954C123.417 202.893 123.356 202.893 123.295 202.831L123.111 203.015C121.208 205.216 119.551 206.623 117.71 207.418L124.092 196.533H121.76L117.648 203.687C115.869 205.339 114.457 206.256 114.028 206.072C113.475 205.828 114.028 204.972 114.334 204.482L118.876 196.594H116.544L112.8 203.015C112.739 202.954 112.677 202.954 112.616 202.893L112.432 203.076C110.775 205.033 109.118 206.561 108.075 206.561C107.584 206.561 107.277 206.195 107.829 205.277L111.205 199.407C112.186 197.634 111.266 196.35 109.977 196.35C108.995 196.35 107.89 196.9 106.724 198.062L107.584 196.533H105.252L101.508 202.954C101.447 202.893 101.385 202.831 101.262 202.831L101.078 203.015C99.4213 204.972 97.7643 206.5 96.721 206.5C96.23 206.5 95.9231 206.133 96.4755 205.216L100.219 198.673H98.8689C98.9303 197.695 97.9484 196.35 96.4141 196.35C95.1867 196.35 93.4069 197.328 92.425 199.04L90.0315 203.198C89.8474 203.076 89.6633 202.954 89.5405 202.893L89.3564 203.076C87.6994 205.033 85.6128 206.561 83.3421 206.561C81.7464 206.561 80.7645 204.972 82.176 202.587L82.8511 201.425C83.2807 201.486 83.7103 201.547 84.2013 201.547C86.6561 201.547 89.4792 200.263 91.3203 197.083C91.9954 195.922 92.2409 194.882 92.2409 193.965C92.2409 191.886 90.8907 190.479 89.1723 190.479C87.8835 190.479 86.3492 191.396 85.3059 193.17L81.685 199.407C80.3349 198.673 79.5984 197.389 79.5984 196.105C79.5984 195.004 80.0894 193.965 81.0713 193.17L80.3349 191.825C78.6779 192.986 77.9414 194.576 77.9414 196.166C77.9414 198.001 78.9847 199.774 80.8872 200.752L80.2121 201.975C78.5551 204.788 79.5371 207.907 82.8511 207.907C85.4287 207.907 87.3925 206.745 88.9882 205.216C88.4972 206.684 89.2337 207.907 90.8907 207.907C91.8113 207.907 92.9773 207.295 94.1434 206.378C94.2661 207.295 95.0026 207.907 96.1686 207.907C97.2733 207.907 98.5007 207.234 99.6668 206.195L98.8076 207.662H101.14L104.699 201.486C108.259 197.022 109.854 197.634 108.811 199.346L105.804 204.605C104.822 206.317 105.497 207.907 107.4 207.907C108.627 207.907 110.038 207.051 111.389 205.828C111.082 207.112 111.695 207.907 112.862 207.907C113.966 207.907 115.255 206.99 116.298 206.011L115.01 208.213C111.88 209.13 109.854 210.414 109.854 212.187C109.854 214.389 113.291 214.878 114.948 212.004L116.728 208.946C118.692 208.335 120.594 207.112 122.62 205.155C122.313 208.396 126.609 209.13 129.248 205.828H129.739C130.598 205.828 131.764 205.522 132.807 204.91L131.273 207.601H133.605L137.164 201.425C140.724 196.961 142.32 197.573 141.276 199.285L138.269 204.544C137.287 206.256 137.962 207.846 139.865 207.846C141.767 207.846 143.977 205.767 145.941 203.565C145.879 203.382 145.45 203.015 145.143 202.893ZM87.2084 194.209C87.8835 193.048 88.6813 192.497 89.2951 192.497C90.1542 192.497 90.5838 193.048 90.5838 193.904C90.5838 196.044 87.9449 199.957 84.324 199.957H83.833L87.2084 194.209ZM95.4322 203.259C94.0206 205.461 92.6091 206.5 91.6885 206.5C91.1976 206.5 90.8907 206.133 91.443 205.216L94.6957 199.59C95.9231 197.45 98.4393 198.001 97.2733 200.08L95.4322 203.259ZM113.107 211.698C112.616 212.554 111.818 212.432 111.818 211.82C111.818 211.209 112.371 210.536 114.15 209.864L113.107 211.698ZM128.818 203.015H128.695C127.959 203.015 127.345 203.626 127.345 204.421C127.345 204.727 127.406 204.972 127.591 205.216V205.277C126.486 207.173 123.847 206.806 125.197 204.36L126.977 201.303L128.082 199.407C129.739 196.655 131.948 197.756 130.536 200.141L128.818 203.015Z" fill="white"/>
<path d="M199.088 203.688C198.965 203.322 198.536 202.955 198.229 202.893L198.045 203.077C197.185 204.055 196.142 204.973 195.221 205.584C195.958 203.383 195.774 199.958 197.247 197.023L195.528 196.106C194.546 197.451 192.46 200.448 190.373 202.893L190.189 203.077C188.532 205.034 186.875 206.562 185.832 206.562C185.341 206.562 184.85 206.073 184.85 204.973V203.994C186.507 204.178 188.225 203.138 189.33 201.242L189.944 200.142C192.092 196.412 188.593 195.189 186.2 197.39L189.514 191.642H187.182L180.554 203.138C180.431 203.016 180.247 202.893 180.124 202.832L179.94 203.016C178.283 204.973 176.135 206.501 174.478 206.501C173.067 206.501 172.207 205.584 173.251 203.75L175.644 199.591C176.994 197.268 179.388 197.696 177.976 200.081L177.669 200.631H179.572L179.879 200.081C181.106 197.94 179.94 196.351 178.038 196.351C176.135 196.351 174.662 197.329 173.68 199.041L171.409 202.955C171.348 202.955 171.287 202.893 171.287 202.893L171.103 203.077C169.446 205.034 167.789 206.562 166.745 206.562C166.254 206.562 165.947 206.196 166.5 205.278L171.471 196.595H169.139L165.027 203.811C163.247 205.401 161.897 206.318 161.467 206.134C160.915 205.89 161.467 205.034 161.774 204.545L166.316 196.656H163.984L159.442 204.422C158.951 204.85 158.399 205.278 157.969 205.645C158.706 203.444 158.522 200.019 159.994 197.084L158.276 196.167C157.294 197.512 151.955 204.606 149.807 207.052C149.991 207.357 150.359 207.602 150.666 207.847C152.016 206.318 156.435 200.631 157.233 199.53C156.312 201.915 156.803 206.257 154.594 206.257C153.796 206.257 153.489 205.401 153.489 205.401L152.016 206.134C152.016 206.134 152.446 208.03 154.594 208.03C154.839 208.03 155.023 208.03 155.269 207.969H155.33C156.496 207.785 157.662 207.296 158.767 206.501C158.767 207.419 159.319 208.03 160.301 208.03C161.59 208.03 163.002 206.868 164.106 205.829C163.861 207.052 164.597 208.03 166.07 208.03C167.543 208.03 169.139 206.868 170.673 205.339C170.673 206.868 171.9 208.03 173.803 208.03C175.705 208.03 177.547 206.99 179.204 205.584L177.915 207.847H180.247L182.886 203.26V205.095C182.886 207.052 183.254 208.091 185.157 208.091C187.059 208.091 189.268 206.012 191.232 203.811C192.583 202.282 193.687 200.692 194.546 199.591C193.626 201.976 194.117 206.318 191.907 206.318C191.11 206.318 190.803 205.462 190.803 205.462L189.33 206.196C189.33 206.196 189.759 208.091 191.907 208.091C192.153 208.091 192.337 208.091 192.583 208.03H192.644C194.976 207.602 197.369 205.706 199.088 203.688ZM183.622 201.854L184.297 200.692C186.998 196.962 188.839 198.002 187.98 199.408L186.875 201.304C186.2 202.527 184.175 203.383 183.622 201.854Z" fill="white"/>
<path d="M199.026 205.278C198.29 205.278 197.676 205.89 197.676 206.623C197.676 207.357 198.229 207.969 199.026 207.969C199.763 207.969 200.377 207.418 200.377 206.623C200.377 205.89 199.763 205.278 199.026 205.278Z" fill="white"/>
<path d="M199.149 204.36H201.481L208.785 191.702H206.452L199.149 204.36Z" fill="white"/>
<path d="M49.2196 169.751C49.2196 169.934 49.1582 170.117 49.0968 170.301C49.0354 170.484 48.9127 170.668 48.79 170.79C48.6672 170.912 48.4831 171.035 48.299 171.157C48.1149 171.218 47.8694 171.279 47.6239 171.279C47.3171 171.279 47.0716 171.218 46.8261 171.096C46.5806 170.974 46.3351 170.851 46.151 170.668C45.9669 170.484 45.9055 170.301 45.7828 170.056C45.7214 169.812 45.66 169.567 45.66 169.261C45.66 168.711 45.7828 168.283 45.9669 167.794C46.151 167.366 46.3965 166.938 46.7647 166.632C46.8875 166.51 47.0716 166.326 47.2557 166.204C47.4398 166.082 47.6239 165.959 47.808 165.898C47.9921 165.837 48.1149 165.715 48.2376 165.654C48.3604 165.592 48.4217 165.592 48.4831 165.531L49.3423 166.754C49.2196 166.815 49.0354 166.877 48.8513 166.999C48.6672 167.06 48.4831 167.182 48.299 167.305C48.1149 167.427 47.9921 167.61 47.8694 167.794C47.7466 167.977 47.6853 168.161 47.6853 168.405C48.1149 168.405 48.4217 168.528 48.7286 168.772C49.0968 168.956 49.2196 169.323 49.2196 169.751ZM54.0679 169.751C54.0679 169.934 54.0065 170.117 53.9451 170.301C53.8838 170.484 53.761 170.668 53.6383 170.79C53.5155 170.912 53.3314 171.035 53.1473 171.157C52.9632 171.218 52.7177 171.279 52.4722 171.279C52.1654 171.279 51.9199 171.218 51.6744 171.096C51.4289 170.974 51.1834 170.851 50.9993 170.668C50.8766 170.484 50.7538 170.301 50.6311 170.056C50.5697 169.812 50.5083 169.567 50.5083 169.261C50.5083 168.711 50.6311 168.283 50.8152 167.794C50.9993 167.366 51.2448 166.938 51.613 166.632C51.7358 166.51 51.9199 166.326 52.104 166.204C52.2881 166.082 52.4722 165.959 52.6563 165.898C52.8404 165.837 52.9632 165.715 53.0859 165.654C53.2087 165.592 53.27 165.592 53.3314 165.531L54.1906 166.754C54.0679 166.815 53.8838 166.877 53.6996 166.999C53.5155 167.06 53.3314 167.182 53.1473 167.305C52.9632 167.427 52.8404 167.61 52.7177 167.794C52.595 167.977 52.5336 168.161 52.5336 168.405C52.9632 168.405 53.27 168.528 53.5769 168.772C53.8838 168.956 54.0679 169.323 54.0679 169.751Z" fill="white"/>
<path d="M216.763 205.767C216.763 205.584 216.824 205.4 216.885 205.217C216.947 205.033 217.069 204.85 217.192 204.728C217.315 204.605 217.499 204.483 217.683 204.361C217.867 204.3 218.113 204.239 218.358 204.239C218.665 204.239 218.911 204.3 219.156 204.422C219.402 204.544 219.647 204.667 219.831 204.85C220.015 205.033 220.077 205.217 220.199 205.462C220.261 205.706 220.322 205.951 220.322 206.256C220.322 206.807 220.199 207.235 220.015 207.724C219.831 208.152 219.586 208.58 219.217 208.886C219.095 209.008 218.911 209.192 218.726 209.314C218.542 209.436 218.358 209.558 218.174 209.62C217.99 209.681 217.867 209.803 217.745 209.864C217.622 209.925 217.56 209.925 217.499 209.987L216.64 208.764C216.763 208.702 216.947 208.641 217.131 208.519C217.315 208.458 217.499 208.336 217.683 208.213C217.867 208.091 217.99 207.907 218.113 207.724C218.236 207.541 218.297 207.357 218.297 207.113C217.867 207.113 217.56 206.99 217.254 206.746C216.947 206.562 216.763 206.195 216.763 205.767ZM211.976 205.767C211.976 205.584 212.037 205.4 212.098 205.217C212.16 205.033 212.282 204.85 212.405 204.728C212.528 204.605 212.712 204.483 212.896 204.361C213.08 204.3 213.326 204.239 213.571 204.239C213.878 204.239 214.124 204.3 214.369 204.422C214.615 204.544 214.86 204.667 215.044 204.85C215.167 205.033 215.29 205.217 215.412 205.462C215.474 205.706 215.535 205.951 215.535 206.256C215.535 206.807 215.412 207.235 215.228 207.724C215.044 208.152 214.799 208.58 214.43 208.886C214.308 209.008 214.124 209.192 213.94 209.314C213.755 209.436 213.571 209.558 213.387 209.62C213.203 209.681 213.08 209.803 212.958 209.864C212.835 209.925 212.773 209.925 212.712 209.987L211.853 208.764C212.037 208.702 212.16 208.641 212.344 208.519C212.528 208.458 212.712 208.336 212.896 208.213C213.08 208.091 213.203 207.907 213.326 207.724C213.449 207.541 213.51 207.357 213.51 207.113C213.08 207.113 212.773 206.99 212.467 206.746C212.098 206.562 211.976 206.195 211.976 205.767Z" fill="white"/>
</symbol><symbol id="main-photo-triangle-desktop" viewBox="0 0 768 57">
<path d="M33.6 23.7L-216 0V57H33.6H384L33.6 0V23.7Z" fill="white"/>
<path d="M734.4 23.7V0L384 57H734.4H983.9V0L734.4 23.7Z" fill="white"/>
</symbol><symbol id="main-photo-triangle" viewBox="0 0 320 57">
<path d="M-190.171 23.7L-440 0V57H-190.171H160.55L-190.171 0V23.7Z" fill="white"/>
<path d="M511.271 23.7V0L160.55 57H511.271H761V0L511.271 23.7Z" fill="white"/>
</symbol><symbol id="phone-icon" viewBox="0 0 18 18">
<path d="M3.6 7.8C5 10.6 7.4 12.9 10.2 14.4L12.4 12.2C12.7 11.9 13.1 11.8 13.4 12C14.5 12.4 15.7 12.6 17 12.6C17.6 12.6 18 13 18 13.6V17C18 17.6 17.6 18 17 18C7.6 18 0 10.4 0 1C0 0.4 0.4 0 1 0H4.5C5.1 0 5.5 0.4 5.5 1C5.5 2.2 5.7 3.4 6.1 4.6C6.2 4.9 6.1 5.3 5.9 5.6L3.6 7.8Z" fill="#010101"/>
</symbol><symbol id="radio-button-active" viewBox="0 0 22 22">
<path opacity="0.3" d="M20.0209 10.9228C20.0209 5.90296 15.9503 1.82907 10.9284 1.82907C5.90623 1.82907 1.83574 5.90295 1.83574 10.9228C1.83574 15.9454 5.90654 20.0166 10.9284 20.0166C15.95 20.0166 20.0209 15.9454 20.0209 10.9228Z" fill="#333333" stroke="#333333" stroke-width="3"/>
</symbol><symbol id="radio-button" viewBox="0 0 22 22">
<path d="M20.0209 10.9227C20.0209 5.90217 15.9502 1.82898 10.9284 1.82898C5.90631 1.82898 1.83565 5.90215 1.83565 10.9227C1.83565 15.9459 5.90653 20.0168 10.9284 20.0168C15.95 20.0168 20.0209 15.9459 20.0209 10.9227Z" fill="#333333" stroke="#333333" stroke-width="3"/>
</symbol><symbol id="sedona-text-desktop" viewBox="0 0 457 78">
<path d="M54.5 53C54.5 53.5 54.4 53.9 54.4 54.3C53.9 58.3 52.6 62.2 50.5 65.8C48.4 69.4 45.5 72.2 42 74.2C40.7 74.8 39.3 75.3 37.9 75.8C36.5 76.2 35.1 76.6 33.7 76.9C32.5 77.1 31.4 77.3 30.2 77.4C29 77.5 27.9 77.6 26.8 77.6C26.6 77.6 26.4 77.6 26.2 77.6C26 77.6 25.8 77.6 25.6 77.6C21 77.4 16.4 76.4 11.9 74.5C7.5 72.5 3.5 70 0 66.8L9.3 51.9C9.4 52 9.4 52 9.5 52.1C9.5 52.1 9.6 52.2 9.7 52.3C11.8 54.6 14.2 56.8 16.8 58.7C19.4 60.6 22.5 61.7 25.9 61.9C26 61.9 26.1 61.9 26.2 62C26.3 62 26.4 62.1 26.5 62.1C26.6 62.1 26.7 62.1 26.8 62.2C26.9 62.2 27 62.3 27.1 62.3C27.4 62.3 27.7 62.3 28.1 62.2C28.4 62.2 28.8 62.1 29.1 62C30.3 61.8 31.5 61.3 32.6 60.6C33.7 59.9 34.6 59.1 35.2 58C35.3 57.8 35.4 57.7 35.4 57.5C35.5 57.3 35.6 57.2 35.6 57C35.8 56.5 35.9 56 35.9 55.5C36 55 36 54.6 36 54.2C36 52.1 35.1 50.3 33.3 48.9C31.5 47.5 29.5 46.4 27.4 45.6C26.5 45.3 25.7 45 25 44.8C24.2 44.6 23.5 44.4 22.8 44.3C22.7 44.3 22.6 44.3 22.6 44.2C22.5 44.2 22.4 44.1 22.4 44.1C18.6 43.2 15 41.7 11.7 39.6C8.4 37.5 6.1 34.6 4.8 30.7C4.6 29.9 4.4 29.1 4.2 28.3C4 27.4 3.9 26.6 3.8 25.6C3.7 25.3 3.7 25 3.7 24.7C3.7 24.4 3.7 24.1 3.7 23.8C3.7 23.2 3.7 22.6 3.8 21.9C3.8 21.3 3.9 20.7 4.1 20C4.3 18.5 4.7 16.9 5.3 15.4C5.8 13.9 6.5 12.5 7.4 11.2C9.9 7.1 13.1 4.2 17 2.4C20.7 0.9 24.8 0 29 0C30 0 31 0.1 32.1 0.2C33.1 0.3 34.2 0.5 35.3 0.6C38.1 1.1 40.9 1.8 43.6 2.9C46.3 4 48.9 5.3 51.2 6.7L44.8 21C42.7 19.5 40.5 18.1 38.2 16.9C35.9 15.7 33.4 15.2 30.7 15.2C30.5 15.2 30.4 15.2 30.2 15.2C30 15.2 29.9 15.2 29.7 15.2C27.9 15.4 26.3 16.2 24.7 17.6C23.2 19 22.4 20.4 22.4 22C22.4 22.2 22.4 22.5 22.5 22.7C22.5 22.9 22.6 23.2 22.8 23.4C23 23.9 23.2 24.4 23.6 24.9C24 25.4 24.4 25.8 24.9 26.2C25.8 26.9 27 27.5 28.6 28.1C30.2 28.7 31.9 29.2 33.7 29.8C35.2 30.2 36.6 30.6 38 30.9C39.4 31.2 40.6 31.6 41.5 31.9C45.8 33.4 49.1 36 51.3 39.6C53.5 43.2 54.6 47 54.7 51C54.7 51.2 54.7 51.3 54.7 51.3C54.7 51.4 54.7 51.5 54.7 51.5C54.6 52 54.6 52.5 54.5 53ZM114.5 59.2V75.8H69.1V1.8H114.5V18H89V30.9H113V46.7H89V59.2H114.5ZM191.1 56.3C188.7 61.4 185.3 65.6 180.8 68.8C177.2 71.3 173.2 73 169 73.9C164.7 74.8 160.4 75.4 156.1 75.6C154.9 75.7 153.6 75.7 152.4 75.7C151.2 75.7 150 75.7 148.9 75.7H128.6V1.7H150.2C151.4 1.7 152.5 1.7 153.7 1.7C154.9 1.7 156.1 1.7 157.2 1.8C161.4 2 165.5 2.6 169.6 3.5C173.7 4.4 177.4 6.1 180.8 8.6C185.1 11.6 188.5 15.6 190.9 20.6C193.3 25.6 194.7 30.7 195 35.9C195.1 36.4 195.1 36.8 195.1 37.3C195.1 37.8 195.1 38.2 195.1 38.7C195.1 38.9 195.1 39.2 195.1 39.5C195.1 39.8 195.1 40 195.1 40.3C194.8 45.9 193.5 51.2 191.1 56.3ZM174.7 38C174.7 37.7 174.7 37.4 174.6 37.1C174.4 34.2 173.7 31.3 172.5 28.6C171.3 25.9 169.6 23.7 167.4 22C165.8 20.7 164 19.8 162 19.3C160 18.8 158 18.6 155.9 18.5C155.5 18.5 155.1 18.5 154.7 18.5C154.3 18.5 153.9 18.5 153.5 18.5H148.4V59.3C148.6 59.3 148.9 59.3 149.2 59.4C149.5 59.4 149.7 59.5 150 59.5C150.3 59.5 150.6 59.5 150.8 59.6C151 59.6 151.3 59.7 151.5 59.7C152.3 59.7 153.1 59.7 153.9 59.6C154.8 59.6 155.6 59.5 156.3 59.4C158.3 59.2 160.3 58.9 162.2 58.4C164.1 57.9 165.9 57 167.4 56C169.9 54.2 171.7 51.8 172.9 48.7C174.1 45.6 174.7 42.4 174.7 39.1C174.7 38.6 174.7 38.3 174.7 38ZM284.3 41.9C284.3 42.7 284.2 43.5 284 44.3C283.8 45.9 283.6 47.5 283.1 49.1C282.7 50.7 282.1 52.3 281.5 53.8C278.2 61.3 273.2 67.1 266.3 71.3C259.4 75.4 252.2 77.5 244.6 77.5C244.1 77.5 243.5 77.5 243 77.4C242.5 77.4 242 77.3 241.4 77.3C238.8 77.1 236.2 76.6 233.6 75.9C231 75.2 228.5 74.2 226.1 73C219.6 69.6 214.5 64.7 210.8 58.4C207.1 52.1 205.2 45.5 205.2 38.7C205.2 37.7 205.2 36.7 205.3 35.7C205.4 34.7 205.5 33.6 205.8 32.6C206.2 30.6 206.7 28.6 207.4 26.5C208.1 24.5 208.9 22.5 210 20.6C213.6 14 218.5 9 224.9 5.5C231.2 2 237.9 0.3 244.8 0.3C245.7 0.3 246.7 0.3 247.6 0.4C248.6 0.5 249.5 0.6 250.4 0.6C253.3 1 256.1 1.7 258.9 2.7C261.7 3.7 264.4 5 267 6.6C272.5 10.2 276.8 14.9 279.8 20.8C282.8 26.7 284.3 32.9 284.3 39.3C284.3 40.3 284.3 41.1 284.3 41.9ZM264.1 37.7C264.1 37.2 264 36.8 264 36.3C263.6 33 262.6 29.8 261 26.7C259.4 23.6 257.1 21.2 254.3 19.5C253.5 19.1 252.8 18.8 252 18.5C251.2 18.2 250.5 17.9 249.7 17.7C248.9 17.5 248.2 17.4 247.4 17.3C246.6 17.2 245.9 17.1 245.1 17.1C241.2 17.1 237.5 18.3 234.2 20.8C230.9 23.3 228.5 26.6 227.2 30.7C227.1 30.9 227.1 31 227 31.2C227 31.4 226.9 31.5 226.9 31.7C226.7 32.4 226.5 33.1 226.3 33.8C226.1 34.5 226 35.3 225.8 36.1C225.7 36.6 225.7 37.2 225.6 37.7C225.6 38.2 225.5 38.7 225.5 39.3C225.5 39.6 225.5 39.9 225.5 40.2C225.5 40.5 225.5 40.8 225.6 41.1C225.8 45.2 227.1 49.1 229.4 52.8C231.7 56.5 234.8 58.9 238.9 60.1C239.4 60.3 239.8 60.4 240.3 60.5C240.8 60.6 241.3 60.7 241.8 60.8C242.3 60.9 242.7 60.9 243.2 61C243.7 61 244.1 61.1 244.6 61.1C248.7 61.1 252.4 59.9 255.7 57.4C259 55 261.4 51.7 262.8 47.6C263 46.8 263.2 46 263.4 45.2C263.6 44.3 263.7 43.5 263.8 42.6C263.9 42.1 263.9 41.5 264 41C264 40.5 264.1 40 264.1 39.5C264.1 38.7 264.1 38.2 264.1 37.7ZM351.6 75.8L323.5 37.6C322.7 36.7 322 35.6 321.3 34.3C320.6 33 319.9 31.7 319.3 30.3C318.8 29.3 318.4 28.3 318 27.3C317.6 26.3 317.2 25.4 316.8 24.6C317.2 27 317.5 29.4 317.7 31.9C317.9 34.4 318 36.9 318 39.3V75.8H298.5V1.8H318L345.9 39.8C346.6 40.9 347.3 42 347.9 43.2C348.6 44.4 349.2 45.6 349.8 46.9C350.3 47.9 350.7 48.9 351.2 49.9C351.7 50.9 352.1 51.9 352.6 52.8C352.5 51.9 352.4 51.1 352.3 50.4C352.2 49.6 352.1 48.8 352 48C351.8 46.5 351.7 44.9 351.7 43.2C351.6 41.6 351.6 39.9 351.6 38.2V1.9H371V75.9H351.6V75.8ZM436.7 75.8L433 62.5H404.4L400.6 75.9H380.6L406 1.9H431.2L456.9 75.9H436.7V75.8ZM421.2 23.7C420.8 22.5 420.4 21.3 420.1 20C419.8 18.7 419.5 17.5 419.2 16.2C419 15.7 418.9 15.3 418.9 14.9C418.8 14.5 418.7 14.1 418.7 13.7C418.6 14.1 418.5 14.5 418.4 14.9C418.3 15.3 418.2 15.8 418.1 16.2C418 16.4 418 16.5 418 16.6C418 16.7 418 16.9 417.9 17C417.7 18.2 417.4 19.3 417.1 20.4C416.8 21.5 416.5 22.6 416.2 23.7L408.7 48.2H428.8L421.2 23.7Z" fill="white"/>
</symbol><symbol id="sedona-text" viewBox="0 0 229 39">
<path d="M27.3156 26.6366C27.3156 26.8879 27.2655 27.0889 27.2655 27.2899C27.0149 29.3003 26.3633 31.2603 25.3108 33.0696C24.2583 34.8789 22.8048 36.2861 21.0506 37.2912C20.399 37.5928 19.6973 37.8441 18.9956 38.0954C18.2939 38.2964 17.5923 38.4974 16.8906 38.6482C16.2891 38.7487 15.7378 38.8492 15.1364 38.8995C14.5349 38.9497 13.9836 39 13.4323 39C13.332 39 13.2318 39 13.1315 39C13.0313 39 12.9311 39 12.8308 39C10.5253 38.8995 8.21974 38.3969 5.96432 37.442C3.75903 36.4369 1.75421 35.1804 0 33.5722L4.6612 26.0838C4.71132 26.134 4.71132 26.134 4.76144 26.1843C4.76144 26.1843 4.81156 26.2345 4.86168 26.2848C5.9142 27.4407 7.11709 28.5464 8.42022 29.5013C9.72335 30.4562 11.2771 31.009 12.9812 31.1095C13.0313 31.1095 13.0814 31.1095 13.1315 31.1598C13.1817 31.1598 13.2318 31.2101 13.2819 31.2101C13.332 31.2101 13.3821 31.2101 13.4323 31.2603C13.4824 31.2603 13.5325 31.3106 13.5826 31.3106C13.733 31.3106 13.8833 31.3106 14.0838 31.2603C14.2342 31.2603 14.4347 31.2101 14.585 31.1598C15.1865 31.0593 15.7879 30.808 16.3392 30.4562C16.8906 30.1044 17.3417 29.7023 17.6424 29.1495C17.6925 29.049 17.7426 28.9987 17.7426 28.8982C17.7927 28.7977 17.8429 28.7474 17.8429 28.6469C17.9431 28.3956 17.9932 28.1443 17.9932 27.893C18.0433 27.6418 18.0433 27.4407 18.0433 27.2397C18.0433 26.1843 17.5923 25.2796 16.6901 24.576C15.7879 23.8724 14.7855 23.3196 13.733 22.9175C13.2819 22.7668 12.8809 22.616 12.5301 22.5155C12.1291 22.4149 11.7783 22.3144 11.4274 22.2642C11.3773 22.2642 11.3272 22.2642 11.3272 22.2139C11.2771 22.2139 11.227 22.1637 11.227 22.1637C9.32239 21.7113 7.51806 20.9575 5.86408 19.9021C4.21011 18.8466 3.05734 17.3892 2.40578 15.4291C2.30554 15.0271 2.2053 14.625 2.10506 14.2229C2.00482 13.7706 1.95469 13.3686 1.90457 12.866C1.85445 12.7152 1.85445 12.5644 1.85445 12.4137C1.85445 12.2629 1.85445 12.1121 1.85445 11.9613C1.85445 11.6598 1.85445 11.3582 1.90457 11.0064C1.90457 10.7049 1.95469 10.4033 2.05494 10.0515C2.15518 9.29768 2.35566 8.49356 2.65638 7.73969C2.90698 6.98582 3.25782 6.28222 3.70891 5.62887C4.96192 3.5683 6.56577 2.11082 8.52046 1.20619C10.3749 0.45232 12.4299 0 14.5349 0C15.0361 0 15.5373 0.0502577 16.0886 0.100515C16.5898 0.150773 17.1412 0.251289 17.6925 0.301546C19.0959 0.552835 20.4992 0.904639 21.8525 1.45747C23.2057 2.01031 24.5089 2.66366 25.6616 3.36727L22.4539 10.5541C21.4014 9.80026 20.2988 9.09665 19.146 8.49356C17.9932 7.89046 16.7402 7.63917 15.387 7.63917C15.2867 7.63917 15.2366 7.63917 15.1364 7.63917C15.0361 7.63917 14.986 7.63917 14.8858 7.63917C13.9836 7.73969 13.1817 8.14175 12.3797 8.84536C11.6279 9.54897 11.227 10.2526 11.227 11.0567C11.227 11.1572 11.227 11.308 11.2771 11.4085C11.2771 11.509 11.3272 11.6598 11.4274 11.7603C11.5277 12.0116 11.6279 12.2629 11.8284 12.5142C12.0289 12.7655 12.2294 12.9665 12.48 13.1675C12.9311 13.5193 13.5325 13.8209 14.3344 14.1224C15.1364 14.424 15.9884 14.6753 16.8906 14.9768C17.6424 15.1778 18.3441 15.3789 19.0457 15.5296C19.7474 15.6804 20.3489 15.8814 20.8 16.0322C22.9551 16.7861 24.6091 18.0928 25.7118 19.9021C26.8144 21.7113 27.3657 23.6211 27.4158 25.6314C27.4158 25.732 27.4158 25.7822 27.4158 25.7822C27.4158 25.8325 27.4158 25.8827 27.4158 25.8827C27.3657 26.134 27.3657 26.3853 27.3156 26.6366ZM57.3878 29.7526V38.0954H34.6332V0.904639H57.3878V9.04639H44.6071V15.5296H56.636V23.4704H44.6071V29.7526H57.3878ZM95.78 28.2951C94.5772 30.8582 92.8731 32.9691 90.6176 34.5773C88.8133 35.8338 86.8085 36.6881 84.7034 37.1405C82.5483 37.5928 80.3931 37.8943 78.2379 37.9948C77.6365 38.0451 76.9849 38.0451 76.3835 38.0451C75.782 38.0451 75.1806 38.0451 74.6292 38.0451H64.4548V0.854381H75.2808C75.8822 0.854381 76.4336 0.854381 77.035 0.854381C77.6365 0.854381 78.2379 0.854381 78.7892 0.904639C80.8943 1.00515 82.9492 1.3067 85.0042 1.75902C87.0591 2.21134 88.9136 3.06572 90.6176 4.32217C92.7728 5.8299 94.4769 7.84021 95.6798 10.3531C96.8827 12.866 97.5844 15.4291 97.7347 18.0425C97.7849 18.2938 97.7849 18.4948 97.7849 18.7461C97.7849 18.9974 97.7849 19.1985 97.7849 19.4497C97.7849 19.5503 97.7849 19.701 97.7849 19.8518C97.7849 20.0026 97.7849 20.1031 97.7849 20.2539C97.6345 23.0683 96.9829 25.732 95.78 28.2951ZM87.5603 19.0979C87.5603 18.9472 87.5603 18.7964 87.5102 18.6456C87.4099 17.1881 87.0591 15.7307 86.4576 14.3737C85.8562 13.0168 85.0042 11.9111 83.9015 11.0567C83.0996 10.4033 82.1974 9.95103 81.195 9.69974C80.1926 9.44845 79.1902 9.34794 78.1377 9.29768C77.9372 9.29768 77.7367 9.29768 77.5362 9.29768C77.3357 9.29768 77.1353 9.29768 76.9348 9.29768H74.3786V29.8028C74.4789 29.8028 74.6292 29.8028 74.7796 29.8531C74.93 29.8531 75.0302 29.9033 75.1806 29.9033C75.3309 29.9033 75.4813 29.9033 75.5815 29.9536C75.6818 29.9536 75.8321 30.0039 75.9324 30.0039C76.3333 30.0039 76.7343 30.0039 77.1353 29.9536C77.5863 29.9536 77.9873 29.9034 78.3382 29.8531C79.3406 29.7526 80.343 29.6018 81.2952 29.3505C82.2475 29.0992 83.1497 28.6469 83.9015 28.1443C85.1545 27.2397 86.0567 26.0335 86.6581 24.4755C87.2596 22.9175 87.5603 21.3093 87.5603 19.6508C87.5603 19.3995 87.5603 19.2487 87.5603 19.0979ZM142.492 21.058C142.492 21.4601 142.442 21.8621 142.342 22.2642C142.242 23.0683 142.141 23.8724 141.891 24.6765C141.69 25.4807 141.39 26.2848 141.089 27.0387C139.435 30.808 136.929 33.7229 133.471 35.8338C130.012 37.8943 126.404 38.9497 122.594 38.9497C122.344 38.9497 122.043 38.9497 121.793 38.8995C121.542 38.8995 121.291 38.8492 120.991 38.8492C119.687 38.7487 118.384 38.4974 117.081 38.1456C115.778 37.7938 114.525 37.2912 113.322 36.6881C110.064 34.9794 107.508 32.5168 105.654 29.3505C103.799 26.1843 102.847 22.8673 102.847 19.4497C102.847 18.9472 102.847 18.4446 102.897 17.942C102.947 17.4394 102.997 16.8866 103.148 16.384C103.348 15.3789 103.599 14.3737 103.95 13.3183C104.3 12.3131 104.701 11.308 105.253 10.3531C107.057 7.03608 109.513 4.5232 112.721 2.76418C115.878 1.00515 119.236 0.150773 122.695 0.150773C123.146 0.150773 123.647 0.150773 124.098 0.201031C124.599 0.251289 125.05 0.301546 125.501 0.301546C126.955 0.502577 128.358 0.854381 129.762 1.35696C131.165 1.85954 132.518 2.51289 133.821 3.31701C136.578 5.12629 138.733 7.4884 140.237 10.4536C141.74 13.4188 142.492 16.5348 142.492 19.7513C142.492 20.2539 142.492 20.6559 142.492 21.058ZM132.368 18.9472C132.368 18.6959 132.318 18.4948 132.318 18.2436C132.117 16.5851 131.616 14.9768 130.814 13.4188C130.012 11.8608 128.859 10.6546 127.456 9.80026C127.055 9.59923 126.704 9.44845 126.303 9.29768C125.902 9.14691 125.552 8.99613 125.151 8.89562C124.75 8.7951 124.399 8.74484 123.998 8.69459C123.597 8.64433 123.246 8.59407 122.845 8.59407C120.89 8.59407 119.036 9.19716 117.382 10.4536C115.728 11.7101 114.525 13.3686 113.873 15.4291C113.823 15.5296 113.823 15.5799 113.773 15.6804C113.773 15.7809 113.723 15.8312 113.723 15.9317C113.623 16.2835 113.523 16.6353 113.422 16.9871C113.322 17.3389 113.272 17.741 113.172 18.143C113.122 18.3943 113.122 18.6959 113.072 18.9472C113.072 19.1985 113.021 19.4497 113.021 19.7513C113.021 19.9021 113.021 20.0528 113.021 20.2036C113.021 20.3544 113.021 20.5052 113.072 20.6559C113.172 22.7165 113.823 24.6765 114.976 26.5361C116.129 28.3956 117.683 29.6018 119.738 30.2049C119.988 30.3054 120.189 30.3557 120.439 30.4059C120.69 30.4562 120.94 30.5064 121.191 30.5567C121.442 30.607 121.642 30.607 121.893 30.6572C122.143 30.6572 122.344 30.7075 122.594 30.7075C124.649 30.7075 126.504 30.1044 128.158 28.8479C129.812 27.6418 131.015 25.9832 131.716 23.9227C131.817 23.5206 131.917 23.1186 132.017 22.7165C132.117 22.2642 132.167 21.8621 132.218 21.4098C132.268 21.1585 132.268 20.857 132.318 20.6057C132.318 20.3544 132.368 20.1031 132.368 19.8518C132.368 19.4497 132.368 19.1985 132.368 18.9472ZM176.223 38.0954L162.139 18.8969C161.738 18.4446 161.388 17.8918 161.037 17.2384C160.686 16.5851 160.335 15.9317 160.034 15.2281C159.784 14.7255 159.583 14.2229 159.383 13.7204C159.182 13.2178 158.982 12.7655 158.781 12.3634C158.982 13.5696 159.132 14.7758 159.232 16.0322C159.333 17.2887 159.383 18.5451 159.383 19.7513V38.0954H149.609V0.904639H159.383L173.366 20.0026C173.717 20.5554 174.068 21.1082 174.369 21.7113C174.72 22.3144 175.02 22.9175 175.321 23.5709C175.572 24.0735 175.772 24.576 176.023 25.0786C176.273 25.5812 176.474 26.0838 176.724 26.5361C176.674 26.0838 176.624 25.6817 176.574 25.3299C176.524 24.9278 176.474 24.5258 176.424 24.1237C176.323 23.3698 176.273 22.5657 176.273 21.7113C176.223 20.9072 176.223 20.0528 176.223 19.1985V0.954897H185.947V38.1456H176.223V38.0954ZM218.876 38.0954L217.021 31.4111H202.687L200.782 38.1456H190.758L203.489 0.954897H216.119L229 38.1456H218.876V38.0954ZM211.107 11.9111C210.907 11.308 210.706 10.7049 210.556 10.0515C210.405 9.3982 210.255 8.7951 210.105 8.14175C210.004 7.89046 209.954 7.68943 209.954 7.4884C209.904 7.28737 209.854 7.08634 209.854 6.88531C209.804 7.08634 209.754 7.28737 209.704 7.4884C209.654 7.68943 209.603 7.94072 209.553 8.14175C209.503 8.24227 209.503 8.29253 209.503 8.34278C209.503 8.39304 209.503 8.49356 209.453 8.54381C209.353 9.14691 209.202 9.69974 209.052 10.2526C208.902 10.8054 208.751 11.3582 208.601 11.9111L204.842 24.2242H214.916L211.107 11.9111Z" fill="white"/>
</symbol><symbol id="video-fullscreen" viewBox="0 0 20 20">
<path d="M0 0V3V6H3V3H6V0H3H0Z"/>
<path d="M3 14H0V17V20H3H6V17H3V14Z"/>
<path d="M17 0H14V3H17V6H20V3V0H17Z"/>
<path d="M17 17H14V20H17H20V17V14H17V17Z"/>
</symbol><symbol id="video-replay" viewBox="0 0 16 20">
<path d="M8 4V0L3 5L8 10V6C11.3 6 14 8.7 14 12C14 15.3 11.3 18 8 18C4.7 18 2 15.3 2 12H0C0 16.4 3.6 20 8 20C12.4 20 16 16.4 16 12C16 7.6 12.4 4 8 4Z"/>
</symbol><symbol id="video-subtitles" viewBox="0 0 32 20">
<path d="M29 0H3C1.3 0 0 1.3 0 3V17C0 18.7 1.3 20 3 20H29C30.7 20 32 18.7 32 17V3C32 1.3 30.7 0 29 0ZM14.4 15.9C13.9 16 13.3 16 12.7 16C12 16 11.3 15.9 10.7 15.7C10.1 15.5 9.5 15.1 9.1 14.7C8.7 14.3 8.3 13.6 8 12.8C7.7 12 7.6 11.1 7.6 10C7.6 8.9 7.8 7.9 8.1 7.1C8.4 6.3 8.8 5.7 9.3 5.2C9.8 4.7 10.4 4.4 11 4.2C11.5 4.1 12.2 4 12.8 4C13.5 4 14 4 14.5 4.1C15 4.2 15.3 4.3 15.6 4.4L15.2 6.3C14.9 6.2 14.6 6.1 14.3 6C13.9 6 13.5 6 13 6C12.1 6 11.4 6.3 10.8 7C10.2 7.7 10 8.7 10 10C10 10.6 10.1 11.1 10.2 11.6C10.3 12.1 10.5 12.5 10.8 12.9C11.1 13.2 11.4 13.5 11.8 13.7C12.2 13.9 12.7 14 13.2 14C13.7 14 14.1 14 14.5 13.9C14.8 13.8 15.1 13.7 15.4 13.5L15.9 15.3C15.4 15.6 14.9 15.7 14.4 15.9ZM23.1 15.9C22.6 16 22 16 21.4 16C20.7 16 20 15.9 19.4 15.7C18.8 15.5 18.2 15.1 17.8 14.7C17.3 14.2 16.9 13.6 16.7 12.8C16.4 12 16.3 11.1 16.3 10C16.3 8.9 16.5 7.9 16.8 7.1C17.1 6.3 17.5 5.7 18 5.2C18.5 4.7 19.1 4.4 19.7 4.2C20.2 4.1 20.9 4 21.5 4C22.2 4 22.7 4 23.2 4.1C23.7 4.2 24 4.3 24.3 4.4L23.9 6.3C23.6 6.2 23.3 6.1 23 6C22.6 6 22.2 6 21.7 6C20.8 6 20.1 6.3 19.5 7C18.9 7.7 18.7 8.7 18.7 10C18.7 10.6 18.8 11.1 18.9 11.6C19 12.1 19.2 12.5 19.5 12.9C19.8 13.2 20.1 13.5 20.5 13.7C20.9 13.9 21.4 14 21.9 14C22.4 14 22.8 14 23.2 13.9C23.5 13.8 23.8 13.7 24.1 13.5L24.6 15.3C24.1 15.6 23.6 15.7 23.1 15.9Z"/>
</symbol></svg>